<svg width="31" height="30" viewBox="0 0 31 30" fill="none" xmlns="http://www.w3.org/2000/svg">
<g clip-path="url(#clip0_46_101679)">
<path d="M21.9285 5.35712H3.71428C1.93908 5.35712 0.5 6.7962 0.5 8.5714V26.7857C0.5 28.5609 1.93908 29.9999 3.71428 29.9999H21.9285C23.7037 29.9999 25.1428 28.5609 25.1428 26.7857V8.5714C25.1428 6.7962 23.7037 5.35712 21.9285 5.35712ZM23 26.7857C23 27.3775 22.5203 27.8572 21.9285 27.8572H3.71428C3.12253 27.8572 2.64283 27.3775 2.64283 26.7857V8.5714C2.64283 7.97965 3.12253 7.49995 3.71428 7.49995H21.9285C22.5203 7.49995 23 7.97965 23 8.5714V26.7857Z" fill="black"/>
<path d="M27.2856 0H7.99993C6.22473 0 4.78564 1.43908 4.78564 3.21428C4.78564 3.80604 5.26534 4.28573 5.85709 4.28573C6.44885 4.28573 6.92848 3.80604 6.92848 3.21428C6.92848 2.62253 7.40817 2.14283 7.99993 2.14283H27.2856C27.8774 2.14283 28.3571 2.62253 28.3571 3.21428V22.5C28.3571 23.0917 27.8774 23.5714 27.2856 23.5714C26.6939 23.5714 26.2142 24.0511 26.2142 24.6429C26.2142 25.2346 26.6939 25.7143 27.2856 25.7143C29.0608 25.7143 30.4999 24.2752 30.4999 22.5V3.21428C30.4999 1.43908 29.0608 0 27.2856 0Z" fill="black"/>
</g>
<defs>
<clipPath id="clip0_46_101679">
<rect width="30" height="30" fill="white" transform="translate(0.5)"/>
</clipPath>
</defs>
</svg>
