<svg width="27" height="35" viewBox="0 0 27 35" fill="none" xmlns="http://www.w3.org/2000/svg">
<g id="Group">
<g id="layer_1">
<path id="Vector" d="M0.0919755 22.1398C0.324381 20.4072 0.974295 18.7406 1.95945 17.301C2.20625 16.9421 2.47156 16.5935 2.7595 16.2676C3.03304 15.9562 3.29424 15.6426 3.55544 15.3168C3.95649 14.8176 4.35343 14.3061 4.76066 13.7966C4.67016 13.7389 4.58584 13.677 4.50974 13.6069C4.27939 13.3965 4.1128 13.1345 3.99763 12.8726C3.86394 12.6457 3.77139 12.3776 3.76316 12.0929L3.77345 12.1734C3.74054 11.798 3.80841 11.6619 3.866 11.4556C3.93181 11.2617 4.02848 11.0781 4.14777 10.9111C4.29173 10.7089 4.47684 10.5357 4.68662 10.3954C4.64343 10.2902 4.60846 10.1871 4.58173 10.1005C4.47889 9.79315 4.50769 9.44045 4.61463 9.16613C4.72158 8.88355 4.89023 8.64635 5.10413 8.45453C5.32008 8.26271 5.55248 8.13277 5.78695 8.0317C6.25998 7.83576 6.69395 7.74088 7.13408 7.63569C7.35003 7.58619 7.55364 7.53668 7.74492 7.47481C7.94647 7.41293 8.08221 7.34486 8.3249 7.23967C10.1142 6.47033 12.1524 6.7364 13.8265 7.42737C14.6739 7.75119 15.4822 8.12452 16.2925 8.46072C16.6977 8.62779 17.1008 8.79074 17.5101 8.93099C17.7137 9.00318 17.9214 9.05887 18.125 9.11662L18.7338 9.31051C19.1451 9.43426 19.5441 9.51058 20.0007 9.59721C20.445 9.6859 20.8872 9.79315 21.3211 9.93547C21.753 10.0757 22.1788 10.249 22.5757 10.4738C22.767 10.5811 22.987 10.7213 23.1063 10.9255C23.2338 11.1235 23.2955 11.3463 23.3243 11.567C23.2585 11.3545 23.1598 11.1503 23.0158 10.9956C22.8739 10.8306 22.6868 10.7584 22.477 10.6801C22.0698 10.5295 21.6461 10.4264 21.2162 10.3562C20.7884 10.2861 20.3545 10.2449 19.9185 10.218C19.4948 10.1995 19.0115 10.1747 18.5569 10.1025C18.3286 10.0654 18.0983 10.0283 17.8782 9.96228C17.6561 9.89834 17.4422 9.8179 17.2262 9.74365C16.7943 9.59514 16.3748 9.42601 15.9614 9.25482C15.1325 8.91036 14.3304 8.5391 13.518 8.22971C12.7056 7.90589 11.9077 7.69138 11.0685 7.64394C10.2397 7.59237 9.40672 7.70994 8.65808 8.0317C8.49355 8.10183 8.22824 8.22765 8.00406 8.29365C7.77165 8.36791 7.54336 8.42153 7.32741 8.47103C6.90579 8.57004 6.47182 8.67523 6.12424 8.81961C5.77255 8.96605 5.52163 9.18263 5.4188 9.4652C5.36944 9.60339 5.36327 9.72096 5.40029 9.83647C5.46816 10.053 5.51752 10.183 5.6183 10.3253L5.9412 10.7832L5.41263 10.975C5.18845 11.0575 4.98895 11.2101 4.84704 11.4102C4.77506 11.5092 4.71747 11.6185 4.67839 11.7361C4.65988 11.7939 4.64137 11.8537 4.63109 11.9135C4.61052 12.0001 4.6352 11.9712 4.61258 11.9816L4.62286 12.062C4.62697 12.1899 4.67016 12.3219 4.74832 12.4498L4.76477 12.4766L4.77711 12.5055C4.85938 12.6931 4.96221 12.8499 5.09384 12.9695C5.22136 13.0892 5.37561 13.1655 5.52163 13.1882L6.27027 13.3057L5.789 13.8894C5.26249 14.5268 4.7586 15.193 4.23003 15.853C3.96678 16.183 3.68912 16.5131 3.41147 16.8307C3.14616 17.1318 2.90141 17.4536 2.67312 17.7836C1.76406 19.1119 1.16145 20.6547 0.949615 22.2491C0.838553 23.0453 0.832383 23.8579 0.908481 24.6603C0.974295 25.4667 1.20464 26.2402 1.38563 27.0302C1.8052 28.5936 2.57234 30.1055 3.78168 31.2812C2.36873 30.3489 1.31571 28.8844 0.649338 27.2859C0.281191 26.4898 0.15779 25.6111 0.0549551 24.749C-0.0273125 23.8806 -0.0211424 23.0019 0.100202 22.1377L0.0919755 22.1398Z" fill="#FAFAED"/>
<path id="Vector_2" d="M3.77344 31.2832C4.80384 31.9618 6.01112 32.2774 7.17931 32.2712H7.19782L7.5125 32.2629H7.60711L7.71611 32.3372C8.12539 32.626 8.56141 32.8652 9.00565 33.0797C9.4355 33.3211 9.88386 33.5273 10.3528 33.6841C11.2845 34.0038 12.2737 34.1605 13.2568 34.1358C15.2169 34.0842 17.144 33.2427 18.6124 31.9247L18.8119 31.7452L19.0587 31.8463C19.7601 32.133 20.5972 32.0629 21.3293 31.7452C22.0656 31.4338 22.6806 30.8645 23.1577 30.1818C23.6349 29.497 23.9907 28.7071 24.256 27.8882C24.5254 27.0714 24.7023 26.2237 24.7866 25.3657C24.9532 23.6537 24.7434 21.8964 24.1161 20.3061C23.8035 19.51 23.384 18.7592 22.8677 18.0847C22.3371 17.3938 21.7551 16.7317 21.1463 16.0902L20.5704 15.4838L21.4383 15.3539C21.5576 15.3353 21.681 15.3312 21.8065 15.3229C21.9114 15.3064 22.0163 15.2673 22.1232 15.2116L22.1643 15.1889L22.1685 15.1847C22.2014 15.1538 22.2343 15.1806 22.2939 15.1064C22.3597 15.0486 22.407 15.0074 22.4564 14.9517C22.5037 14.898 22.5469 14.8403 22.586 14.7805L22.6559 14.6113C22.7114 14.4773 22.7526 14.3453 22.7752 14.2133L22.7978 14.0813L22.8842 14.0194L22.9829 13.9493L23.0343 13.9121C23.2359 13.8338 23.3984 13.6626 23.4601 13.4398C23.5218 13.217 23.4806 12.953 23.3325 12.753L23.3161 12.7303V12.7261C23.2914 12.6622 23.2318 12.5178 23.2441 12.4209C23.2441 12.3198 23.2585 12.2229 23.2708 12.128C23.2955 11.9382 23.3387 11.7547 23.3264 11.5649C23.3737 11.7505 23.3655 11.9465 23.3757 12.1342C23.3799 12.227 23.386 12.3219 23.4004 12.4085C23.4128 12.4993 23.4416 12.5302 23.493 12.6189C23.7254 12.8375 23.8385 13.1696 23.8056 13.4996C23.7789 13.8008 23.604 14.0875 23.3552 14.2751L23.2544 14.7434C23.2071 14.962 23.1166 15.1682 22.9953 15.3539C22.9377 15.4446 22.8575 15.5374 22.7958 15.6096C22.7526 15.6901 22.6045 15.785 22.4914 15.8613L22.5366 15.8365C22.4502 15.9005 22.3536 15.9582 22.2507 16.0098C22.697 16.5089 23.1372 17.0163 23.5485 17.5526C24.1161 18.2951 24.5748 19.1181 24.9162 19.9823C25.599 21.717 25.8211 23.6063 25.6422 25.444C25.5517 26.364 25.3625 27.2736 25.0725 28.1522C24.7866 29.0288 24.4041 29.8869 23.8611 30.6706C23.3223 31.4462 22.5819 32.1433 21.6707 32.5311C20.8542 32.8838 19.8917 33.0034 18.995 32.725C17.4093 34.0739 15.3896 34.934 13.2815 34.9917C12.1935 35.0186 11.1055 34.8453 10.0792 34.4947C9.56713 34.3152 9.0653 34.1028 8.58815 33.8429C8.15007 33.5706 7.7449 33.2489 7.36853 32.9044L7.16286 32.8797C5.8836 32.7043 4.67427 32.1433 3.77961 31.2812L3.77344 31.2832Z" fill="#70E0CD"/>
<path id="Vector_3" d="M0.536137 22.047C0.842584 20.0029 1.74958 18.0559 3.11728 16.5089C4.29165 15.1806 5.35085 13.5718 6.61365 12.3301C7.65434 11.3071 8.72176 10.4614 10.0092 9.90041C12.2901 11.5154 15.406 12.1197 18.0838 12.2497C18.0838 12.2497 18.0838 12.2497 18.0838 12.2518C19.7374 14.0668 21.72 15.8819 23.2152 17.831C25.4899 20.7991 25.8231 25.0068 24.4966 28.507C24.0523 29.6806 23.4106 30.8191 22.4255 31.5926C21.4403 32.3661 20.0603 32.7167 18.9003 32.2444C17.3599 33.6284 15.3258 34.5174 13.2588 34.5669C11.1918 34.6164 9.11459 33.9027 7.51243 32.593C6.17558 32.5765 4.82433 32.1206 3.77954 31.2832C2.73474 30.4458 1.94086 29.3196 1.38555 28.1007C0.532024 26.2196 0.235861 24.091 0.540251 22.047H0.536137Z" fill="#B0481B"/>
<path id="Vector_4" d="M11.3915 12.8808C9.48698 14.9599 8.1707 17.5753 7.63801 20.3474C7.10533 23.1195 7.35213 26.0381 8.34757 28.6782C7.57631 26.8012 6.78243 25.1223 6.35258 23.1381C5.92068 21.1539 5.84869 19.05 6.47804 17.1195C6.90789 15.7973 7.66475 14.5825 8.65813 13.6131C9.32039 12.9675 10.4783 12.7406 11.3915 12.8808Z" fill="#CC5F29"/>
<path id="Vector_5" d="M9.1188 10.8121C7.2431 12.0826 5.65328 13.776 4.49948 15.7293C2.06642 17.7135 1.10389 20.5248 1.00928 23.4021C2.03145 20.9703 3.88864 18.8953 6.13249 17.5134C6.949 15.818 7.96706 14.1844 9.15994 12.7282C8.40307 12.9448 7.73465 13.2026 7.15261 13.7306C7.6421 12.7055 8.30024 11.5958 9.12086 10.81L9.1188 10.8121Z" fill="#CC5F29"/>
<path id="Vector_6" d="M7.18139 32.5806C5.9988 31.2337 5.0918 29.66 4.68457 27.946C4.25884 26.2402 4.26295 24.4458 4.58996 22.7132C4.90464 20.9744 5.51753 19.2975 6.23326 17.6702C6.93665 16.0325 7.83542 14.4855 8.71979 12.9221C7.67088 14.3721 6.64665 15.8633 5.86922 17.4969C5.06917 19.114 4.41926 20.8239 4.08402 22.6183C3.75495 24.4086 3.7714 26.2918 4.29791 28.0491C4.53443 28.9339 4.94988 29.759 5.42498 30.5283L5.81575 31.0852C5.94327 31.2729 6.10369 31.4338 6.24354 31.6091C6.51914 31.9659 6.8626 32.2629 7.18139 32.5765V32.5806Z" fill="#7A1B29"/>
<path id="Vector_7" d="M9.46842 14.5845C9.50132 14.5845 9.53012 14.566 9.54451 14.5371C9.56097 14.5062 9.5548 14.467 9.53217 14.4402C9.35735 14.2483 9.13935 14.0833 8.86375 13.9389C8.61695 13.8111 8.35986 13.7141 8.0966 13.6522C7.8498 13.5924 7.59066 13.5615 7.3274 13.5615H7.28421C6.9716 13.5656 6.70423 13.6151 6.46154 13.7079C6.42863 13.7203 6.40601 13.7533 6.40601 13.7884C6.40601 13.8234 6.42863 13.8564 6.46154 13.8688C6.72685 13.9719 6.97982 14.0421 7.2184 14.104C7.46314 14.1679 7.70583 14.2318 7.94647 14.2875L8.67865 14.4505C8.93368 14.5041 9.18459 14.5557 9.46225 14.5825C9.4643 14.5825 9.46842 14.5825 9.47047 14.5825L9.46842 14.5845Z" fill="#7A1B29"/>
<path id="Vector_8" d="M7.89293 17.6516C7.9279 17.6516 7.9608 17.6289 7.97109 17.5938C7.98343 17.5608 7.97109 17.5217 7.94641 17.499C7.74279 17.3278 7.50628 17.1793 7.20189 17.0328C6.93863 16.907 6.67126 16.8018 6.408 16.7234C6.14475 16.643 5.86504 16.5832 5.57504 16.544C5.38377 16.5192 5.21512 16.5069 5.0547 16.5069C4.92924 16.5069 4.81201 16.5151 4.69684 16.5296C4.66187 16.5337 4.63308 16.5605 4.62485 16.5956C4.61663 16.6306 4.63102 16.6677 4.65982 16.6863C4.93541 16.8719 5.21512 16.9998 5.42902 17.0885C5.70873 17.2061 5.96582 17.2989 6.21673 17.3711C6.47793 17.4495 6.74324 17.5134 7.02912 17.567C7.24096 17.6062 7.52479 17.6516 7.83123 17.6516H7.89293Z" fill="#7A1B29"/>
<path id="Vector_9" d="M6.3484 20.9621C6.45535 20.9621 6.5623 20.9559 6.6713 20.9435C6.70626 20.9394 6.73712 20.9125 6.74534 20.8775C6.75357 20.8424 6.73917 20.8053 6.70832 20.7847C6.42038 20.597 6.13039 20.4588 5.88359 20.3515C5.64296 20.2422 5.38587 20.1391 5.05063 20.0194C4.72567 19.906 4.45419 19.8214 4.19299 19.7554C3.93385 19.6874 3.62329 19.6131 3.27982 19.5781C3.27776 19.5781 3.27365 19.5781 3.27159 19.5781C3.23869 19.5781 3.20784 19.5966 3.19344 19.6276C3.17904 19.6606 3.18521 19.6997 3.20989 19.7245C3.41351 19.9308 3.6562 20.1123 3.97498 20.2917C4.23001 20.4382 4.50766 20.564 4.82028 20.6754C5.13701 20.7847 5.43112 20.861 5.72111 20.9043C5.9494 20.9414 6.15507 20.96 6.34634 20.96L6.3484 20.9621Z" fill="#7A1B29"/>
<path id="Vector_10" d="M5.50928 24.4272C5.68821 24.4272 5.86303 24.4107 6.02551 24.3797C6.06048 24.3736 6.08927 24.3447 6.09338 24.3076C6.09955 24.2704 6.08104 24.2354 6.04814 24.2189C5.74992 24.0662 5.47226 23.9507 5.14114 23.8146L4.25882 23.4578L3.37238 23.1113C3.07622 22.9978 2.77183 22.8803 2.43865 22.7792C2.43042 22.7771 2.42219 22.7751 2.41397 22.7751C2.38723 22.7751 2.36049 22.7874 2.34404 22.8101C2.32347 22.839 2.32347 22.8803 2.34404 22.9091C2.52708 23.1731 2.77183 23.4103 3.09267 23.6352C3.35799 23.8249 3.66032 23.9879 3.99556 24.1219C4.3308 24.2539 4.66398 24.3426 4.98688 24.3859C5.17199 24.4128 5.34269 24.4251 5.50928 24.4251V24.4272Z" fill="#7A1B29"/>
<path id="Vector_11" d="M5.53596 27.9913C5.77454 27.9913 6.00077 27.9625 6.21056 27.9088C6.24552 27.8985 6.27226 27.8676 6.27431 27.8305C6.27637 27.7933 6.2558 27.7583 6.22084 27.7459C5.99872 27.6551 5.78276 27.5768 5.57298 27.4984C5.45781 27.4551 5.34263 27.4118 5.22746 27.3684C4.91073 27.2426 4.59811 27.1189 4.28961 26.9827C3.9811 26.8487 3.67877 26.7022 3.37232 26.5537L2.4283 26.0731C2.41596 26.0669 2.40157 26.0628 2.38923 26.0628C2.3666 26.0628 2.34398 26.0711 2.32753 26.0876C2.30079 26.1144 2.29462 26.1536 2.31313 26.1866C2.47355 26.498 2.71624 26.793 3.03708 27.0611C3.31268 27.2962 3.63558 27.4963 3.9955 27.6551C4.35748 27.8119 4.72151 27.913 5.08143 27.9583C5.23774 27.979 5.38994 27.9893 5.53596 27.9893V27.9913Z" fill="#7A1B29"/>
<path id="Vector_12" d="M6.45742 31.4152C6.74741 31.4152 7.02301 31.374 7.27393 31.2935C7.30889 31.2812 7.33357 31.2482 7.33357 31.211C7.33357 31.1739 7.30889 31.1409 7.27393 31.1285L7.04358 31.0563C6.74741 30.9635 6.4677 30.8769 6.19211 30.7779C5.81573 30.6376 5.48872 30.5015 5.19461 30.3612C4.89845 30.2189 4.58583 30.0498 4.24237 29.8456C4.00379 29.6992 3.76727 29.5403 3.52047 29.3753L3.29012 29.2227C3.27572 29.2124 3.25927 29.2083 3.24282 29.2083C3.22431 29.2083 3.20374 29.2144 3.18934 29.2268C3.16055 29.2495 3.15027 29.2908 3.16261 29.3238C3.30246 29.6847 3.53487 30.025 3.85777 30.3386C4.14159 30.6211 4.483 30.8583 4.8676 31.0419C5.25426 31.2255 5.65326 31.341 6.0502 31.3863C6.18799 31.4028 6.32374 31.4111 6.45742 31.4111V31.4152Z" fill="#7A1B29"/>
<path id="Vector_13" d="M9.46842 14.4257C9.28332 14.2215 9.05914 14.0668 8.82262 13.9431C8.5861 13.8193 8.33519 13.7244 8.07399 13.6626C7.81485 13.5986 7.54748 13.5718 7.28011 13.5759C7.01274 13.5801 6.74537 13.6172 6.48828 13.7162C6.74537 13.8173 6.99217 13.8853 7.23692 13.9493C7.48166 14.0132 7.72229 14.0751 7.96293 14.1328L8.69305 14.2958C8.93985 14.3473 9.19077 14.3989 9.46637 14.4257H9.46842Z" fill="#EB690C"/>
<path id="Vector_14" d="M7.89298 17.4928C7.66675 17.303 7.41994 17.1607 7.16697 17.039C6.914 16.9173 6.6528 16.8142 6.38543 16.7358C6.11806 16.6533 5.84452 16.5956 5.56481 16.5584C5.28716 16.5213 5.00128 16.5048 4.70923 16.544C4.95397 16.709 5.20695 16.8307 5.46403 16.9379C5.71906 17.0452 5.97821 17.1401 6.24146 17.2185C6.50472 17.2989 6.77209 17.3608 7.04563 17.4123C7.31917 17.4618 7.59682 17.501 7.89298 17.4948V17.4928Z" fill="#EB690C"/>
<path id="Vector_15" d="M6.66115 20.7867C6.39378 20.6114 6.1223 20.4815 5.84876 20.3598C5.57728 20.236 5.29962 20.1308 5.02197 20.0318C4.74226 19.9349 4.46049 19.8441 4.17256 19.7699C3.88462 19.6936 3.59052 19.6255 3.27173 19.5966C3.49591 19.8235 3.75094 19.9988 4.01831 20.1494C4.28362 20.302 4.56333 20.4258 4.84921 20.5268C5.13715 20.6258 5.43125 20.7063 5.73358 20.7517C6.03592 20.8012 6.34236 20.8239 6.65909 20.7888L6.66115 20.7867Z" fill="#EB690C"/>
<path id="Vector_16" d="M6.00905 24.223C5.7026 24.0662 5.40438 23.9425 5.10822 23.8208L4.22796 23.464L3.34358 23.1195C3.04536 23.004 2.74509 22.8885 2.41602 22.7895C2.61346 23.0721 2.86849 23.301 3.14408 23.4928C3.41762 23.6888 3.7179 23.8455 4.03052 23.9693C4.34313 24.091 4.66809 24.1838 5.00127 24.2292C5.3324 24.2766 5.67381 24.289 6.01111 24.223H6.00905Z" fill="#EB690C"/>
<path id="Vector_17" d="M6.19017 27.7541C5.8467 27.6159 5.51968 27.5004 5.19884 27.3788C4.88005 27.2529 4.56744 27.1271 4.25688 26.991C3.94837 26.8549 3.64398 26.7105 3.33548 26.5599L2.3894 26.0793C2.56011 26.4114 2.81103 26.6919 3.09279 26.927C3.37456 27.1663 3.69334 27.3602 4.03064 27.5066C4.36794 27.6531 4.7258 27.7583 5.09189 27.8016C5.45593 27.849 5.82819 27.847 6.19017 27.7521V27.7541Z" fill="#EB690C"/>
<path id="Vector_18" d="M7.24715 31.1388C6.86461 31.0192 6.5088 30.912 6.16122 30.7882C5.8157 30.6603 5.48251 30.5242 5.1555 30.3674C4.82849 30.2107 4.51381 30.0374 4.19708 29.8477C3.88241 29.6558 3.57596 29.4455 3.24072 29.2227C3.38469 29.5981 3.62738 29.9281 3.91532 30.2066C4.2012 30.4891 4.53849 30.7201 4.90253 30.8934C5.26656 31.0667 5.65733 31.1842 6.05633 31.2296C6.45327 31.277 6.86049 31.2605 7.24304 31.1368L7.24715 31.1388Z" fill="#EB690C"/>
<path id="Vector_19" d="M7.08887 13.6667C7.65857 13.8482 8.12955 13.9451 8.72394 14.007C8.23444 13.6687 7.6668 13.5491 7.08887 13.6667Z" fill="#FEAA0F"/>
<path id="Vector_20" d="M5.33032 16.6203C6.02548 16.8988 6.63221 17.0803 7.36439 17.2391C6.74944 16.8142 6.07073 16.6059 5.33032 16.6203Z" fill="#FEAA0F"/>
<path id="Vector_21" d="M3.58423 19.6482C4.39045 20.0339 5.1288 20.2896 6.00084 20.4897C5.23986 20.0215 4.46243 19.7493 3.58423 19.6482Z" fill="#FEAA0F"/>
<path id="Vector_22" d="M2.62988 22.8617C3.43199 23.4908 4.30814 23.862 5.31386 24.0064C4.38835 23.5815 3.56773 23.2268 2.62988 22.8617Z" fill="#FEAA0F"/>
<path id="Vector_23" d="M2.854 26.3578C3.55533 26.9745 4.34305 27.3519 5.26033 27.5149C4.43765 27.0755 3.70342 26.7167 2.854 26.3578Z" fill="#FEAA0F"/>
<path id="Vector_24" d="M3.78784 29.6249C4.47272 30.3798 5.35298 30.8398 6.36076 30.9759C5.43319 30.5551 4.65165 30.1405 3.78784 29.6249Z" fill="#FEAA0F"/>
<g id="Vector_25" style="mix-blend-mode:hard-light" opacity="0.6">
<path d="M2.06027 26.8507C2.64231 27.6263 3.48144 28.1275 4.44808 28.0965C4.55709 28.375 4.8224 28.5874 5.11856 28.6287C5.41473 28.672 5.75819 28.6142 5.93918 28.377C6.1613 28.8886 6.46569 29.3547 6.82356 29.7817C6.62817 29.3506 6.48832 28.8886 6.43484 28.3874C7.44262 29.5177 8.6643 30.4809 10.069 31.0357C11.4758 31.5905 13.0779 31.7122 14.5053 31.2131C16.7738 30.4169 18.2937 28.146 18.777 25.7844C19.2604 23.4227 18.9642 20.8404 18.3945 18.4993C19.4126 20.5248 19.9925 22.7441 19.8691 25.0088C20.6589 23.2247 20.6877 21.1724 20.2908 19.2604C19.8938 17.3484 19.1493 15.655 18.3204 13.8894C19.3858 14.7021 20.445 15.7561 21.4219 16.6739C21.4446 16.6966 21.4651 16.7214 21.4898 16.742C27.6825 21.4963 24.871 33.8202 18.5899 31.8442C17.2448 33.3561 15.2663 34.2843 13.2466 34.3482C11.2269 34.4122 9.16407 33.6284 7.72439 32.2052C5.79521 32.4073 3.89689 31.2935 2.74514 29.7301C1.5934 28.1667 1.09157 26.1453 0.848877 24.2168C1.15944 25.1367 1.47822 26.0752 2.06027 26.8507Z" fill="#603813"/>
</g>
<path id="Vector_26" d="M8.84741 32.1969C10.684 33.2386 12.9814 33.4262 14.9619 32.694C16.9425 31.9618 18.5961 30.386 19.318 28.3977C19.3036 28.5833 19.3098 28.7174 19.2954 28.903C21.1731 28.8205 24.5194 25.3368 21.2307 17.7032C26.8085 24.0044 23.0303 32.76 18.7092 31.1657C17.5637 32.7642 12.7263 35.4847 8.84741 32.1949V32.1969Z" fill="#7A1B29"/>
<path id="Vector_27" d="M13.9459 30.1302L12.2307 30.058C12.2492 29.6022 12.2656 29.1443 12.278 28.6864C11.6651 28.6225 11.0933 28.4492 10.5894 28.1728C9.3184 27.4757 8.52452 26.0979 8.6109 24.7428L10.3241 24.8541C10.2789 25.543 10.7272 26.2856 11.4121 26.661C11.6795 26.8074 11.9839 26.9064 12.3129 26.9559C12.3253 25.8854 12.3232 24.815 12.3047 23.7445C12.2471 23.7342 12.1875 23.7238 12.1299 23.7135C10.9761 23.4846 10.0835 22.8019 9.74208 21.884C9.34719 20.8239 9.74619 19.512 10.6902 18.7633C11.081 18.4539 11.5458 18.2394 12.06 18.126C12.0291 17.6887 11.9962 17.2535 11.9592 16.8183L13.6704 16.676C13.7094 17.1545 13.7464 17.6351 13.7794 18.1157C14.5753 18.2601 15.3136 18.5756 15.9718 18.8561L15.3013 20.4402C14.8365 20.2422 14.3635 20.0401 13.8904 19.9081C13.9295 20.6527 13.9603 21.3973 13.985 22.1439C14.1989 22.1563 14.419 22.1748 14.6411 22.2058C15.8031 22.3687 16.6978 22.9112 17.1564 23.728C17.7117 24.7139 17.5596 26.0814 16.7883 27.0529C16.2083 27.7851 15.3445 28.2904 14.2215 28.5524C14.1475 28.5689 14.0735 28.5854 13.9994 28.5998C13.985 29.1093 13.9686 29.6187 13.948 30.1282L13.9459 30.1302ZM14.0241 23.8724C14.0406 24.8562 14.0426 25.8401 14.0323 26.8239C14.5074 26.6898 15.0792 26.4382 15.4432 25.9824C15.7785 25.5595 15.871 24.9531 15.6592 24.5757C15.3918 24.0992 14.6884 23.9528 14.4005 23.9115C14.2791 23.895 14.1537 23.8827 14.0262 23.8724H14.0241ZM12.1669 19.8874C12.0127 19.9452 11.8728 20.0215 11.7535 20.1164C11.3957 20.399 11.2147 20.9229 11.3484 21.2838C11.48 21.6365 11.8749 21.8634 12.2574 21.9768C12.2327 21.2797 12.2039 20.5825 12.1649 19.8874H12.1669Z" fill="url(#paint0_linear_309_113)"/>
<path id="Vector_28" d="M17.1419 12.7963C16.564 13.0541 15.912 13.0912 15.2806 13.0417C13.7402 12.918 12.2429 12.2786 11.087 11.2493C10.8917 11.0761 10.7045 10.8884 10.5811 10.6574C10.4577 10.4284 10.4042 10.1479 10.4906 9.90247C12.3334 11.4989 14.7192 12.555 17.1419 12.7963Z" fill="#7A1B29"/>
<path id="Vector_29" d="M10.7394 9.00318C10.6818 9.05887 10.6489 9.14137 10.651 9.22181C10.653 9.30226 10.6654 9.37032 10.7209 9.42807C11.7431 10.4532 14.5607 12.7818 18.378 12.5488C18.5569 12.5385 18.6474 12.2951 18.6474 12.1156C18.6474 11.8372 18.3677 11.6866 18.3677 11.6866C18.3677 11.6866 14.9207 11.9939 10.7374 9.00318H10.7394Z" fill="#EB690C"/>
<path id="Vector_30" d="M10.721 9.42601C10.647 9.35382 10.1616 9.42601 10.3056 9.77046C10.4783 10.1789 13.73 13.842 18.3925 12.4951C18.4192 12.3425 18.2567 12.1651 18.1107 12.2105C15.5995 12.9654 10.721 9.42601 10.721 9.42601Z" fill="#EB690C"/>
<path id="Vector_31" d="M10.8916 9.42807C12.5596 11.3669 14.9741 12.4023 17.5224 12.2806C16.2431 12.2023 15.0585 11.8929 13.952 11.4185C12.8475 10.9399 11.8192 10.2902 10.8916 9.42807Z" fill="#7A1B29"/>
<path id="Vector_32" d="M12.0063 9.86122C13.736 11.3875 15.9449 12.1074 18.2381 11.8949C17.0823 11.8599 16.0004 11.6536 14.968 11.3174C13.9355 10.9771 12.9483 10.5047 12.0063 9.86122Z" fill="#FEAA0F"/>
<path id="Vector_33" d="M10.6838 9.72096C11.5559 11.0451 12.8804 11.93 14.4332 12.2311C12.9626 11.6392 11.7821 10.8389 10.6838 9.72096Z" fill="#FEAA0F"/>
<path id="Vector_34" d="M14.608 21.0941C14.7252 21.62 14.8795 22.1439 15.1407 22.6513C15.2682 22.905 15.4286 23.1525 15.6384 23.3876C15.8461 23.6145 16.1443 23.8517 16.5618 23.9157C17.1994 23.9858 17.8637 23.7713 18.3347 23.3629C18.8057 22.9545 19.1183 22.4162 19.2725 21.8758C19.6181 20.7909 19.5852 19.6997 19.4803 18.654C19.4433 18.1239 19.326 17.6145 19.2438 17.0968C19.1327 16.5873 19.0113 16.0799 18.8818 15.5746C18.7316 15.0775 18.5959 14.5763 18.4355 14.0833L17.9295 12.6148L17.7979 12.2353L17.4935 12.4745C16.6153 13.085 15.8811 13.9121 15.3854 14.863C14.8774 15.8076 14.5915 16.8554 14.4661 17.9115C14.3406 18.9696 14.3859 20.0442 14.608 21.0982V21.0941ZM15.2209 17.9857C15.3073 17.0081 15.5417 16.0387 15.9777 15.1662C16.3438 14.4072 16.8703 13.7368 17.51 13.1923L17.8432 14.2628C17.9851 14.7516 18.1043 15.2466 18.236 15.7375C18.347 16.2325 18.4499 16.7296 18.5424 17.2246C18.6062 17.7238 18.7049 18.2209 18.7234 18.72C18.7975 19.708 18.781 20.7269 18.4663 21.5973C18.3285 22.0408 18.0735 22.412 17.765 22.6657C17.4544 22.9174 17.0616 23.0246 16.6791 22.9751C16.5865 22.9669 16.4384 22.8947 16.3047 22.7482C16.1711 22.6059 16.0415 22.4285 15.9325 22.2285C15.7104 21.8304 15.5561 21.3684 15.4368 20.9022C15.2085 19.9617 15.1324 18.9634 15.2188 17.9857H15.2209Z" fill="#7A1B29"/>
<path id="Vector_35" d="M14.9473 20.729C15.0646 21.2549 15.2188 21.7788 15.48 22.2862C15.6075 22.5399 15.768 22.7874 15.9777 23.0226C16.1855 23.2495 16.4837 23.4867 16.9012 23.5506C17.5388 23.6207 18.2031 23.4062 18.6741 22.9978C19.145 22.5894 19.4577 22.0511 19.6119 21.5107C19.9574 20.4258 19.9245 19.3347 19.8196 18.2889C19.7826 17.7589 19.6654 17.2494 19.5831 16.7317C19.472 16.2222 19.3507 15.7148 19.2211 15.2095C19.071 14.7124 18.9353 14.2112 18.7748 13.7183L18.2689 12.2497L18.1373 11.8702L17.8329 12.1094C16.9547 12.72 16.2204 13.5471 15.7248 14.4979C15.2168 15.4426 14.9309 16.4904 14.8054 17.5464C14.68 18.6045 14.7252 19.6791 14.9473 20.7331V20.729ZM15.5602 17.6207C15.6466 16.643 15.8811 15.6736 16.3171 14.8011C16.6832 14.0421 17.2097 13.3717 17.8493 12.8272L18.1825 13.8977C18.3244 14.3865 18.4437 14.8815 18.5753 15.3724C18.6864 15.8675 18.7892 16.3645 18.8818 16.8596C18.9455 17.3587 19.0443 17.8558 19.0628 18.3549C19.1368 19.3429 19.1204 20.3618 18.8057 21.2322C18.6679 21.6757 18.4129 22.047 18.1044 22.3007C17.7938 22.5523 17.401 22.6596 17.0184 22.6101C16.9259 22.6018 16.7778 22.5296 16.6441 22.3832C16.5104 22.2408 16.3808 22.0635 16.2718 21.8634C16.0497 21.4653 15.8955 21.0033 15.7762 20.5372C15.5479 19.5966 15.4718 18.5983 15.5582 17.6207H15.5602Z" fill="#EB690C"/>
<path id="Vector_36" d="M17.3332 23.1979C17.2612 23.1979 17.1913 23.1938 17.1316 23.1876C16.8499 23.1443 16.601 22.9999 16.3707 22.7482C16.1897 22.5461 16.0395 22.3234 15.912 22.0697C15.6981 21.6551 15.5418 21.1951 15.4061 20.5825C15.1922 19.5657 15.1449 18.5241 15.2683 17.4866C15.3999 16.381 15.7002 15.3889 16.1588 14.533C16.6319 13.6234 17.3311 12.8334 18.1929 12.2332L18.7009 13.71C18.8037 14.0276 18.8963 14.3473 18.9909 14.6691C19.0423 14.8444 19.0937 15.0218 19.1431 15.1868C19.2706 15.6798 19.3899 16.1892 19.4989 16.6842C19.5236 16.8369 19.5503 16.9895 19.5791 17.1421C19.6449 17.5093 19.7087 17.8579 19.7354 18.225C19.83 19.1635 19.8814 20.2649 19.538 21.3436C19.3878 21.8717 19.0855 22.3522 18.6844 22.6987C18.3183 23.0164 17.8268 23.1979 17.3332 23.1979ZM17.8618 12.5281C17.1913 13.0974 16.636 13.8111 16.2617 14.5887C15.838 15.4384 15.5727 16.4202 15.476 17.5072C15.3876 18.5076 15.4657 19.5471 15.7002 20.5145C15.8441 21.0796 16.0149 21.5354 16.2185 21.9026C16.3295 22.113 16.4735 22.313 16.6319 22.4801C16.8005 22.6616 17.0062 22.7792 17.1748 22.7936C17.2448 22.8019 17.3167 22.806 17.3867 22.806C17.7774 22.806 18.162 22.6699 18.4685 22.4224C18.8305 22.1253 19.1102 21.6984 19.2541 21.2343C19.5359 20.4526 19.6223 19.5017 19.5277 18.2539C19.5133 17.8888 19.4598 17.5258 19.4063 17.1751C19.3837 17.0287 19.3631 16.8802 19.3405 16.7173C19.2459 16.2099 19.141 15.7066 19.03 15.2095C18.9827 15.0342 18.9374 14.8589 18.8922 14.6835C18.8099 14.3659 18.7276 14.0462 18.6351 13.7244L18.3019 12.654C18.2752 12.5653 18.2052 12.4972 18.1168 12.4725C18.0921 12.4642 18.0654 12.4621 18.0407 12.4621C17.9769 12.4621 17.9132 12.4848 17.8638 12.5261L17.8618 12.5281Z" fill="#FEAA0F"/>
<path id="Vector_37" d="M17.4709 22.6596C17.8412 22.6596 18.1085 22.5441 18.3368 22.344C18.4376 22.2553 18.5301 22.1563 18.635 22.0697C18.7399 21.9851 18.8592 21.9129 18.9929 21.8923C19.1266 21.8716 19.2849 21.8881 19.3713 21.9913C19.4433 21.8716 19.503 21.7458 19.5523 21.6159C19.3549 21.4323 19.1492 21.2549 18.9189 21.1188C18.7173 21.8098 17.9481 22.6039 17.4709 22.6596Z" fill="#CC540A"/>
<path id="Vector_38" d="M17.1728 17.7898C17.3024 18.6994 17.5163 19.6131 17.9667 20.4877C18.197 20.9208 18.5055 21.3498 18.9642 21.6736C19.0773 21.7541 19.1966 21.8304 19.3282 21.8861C19.4537 21.9542 19.5935 21.9933 19.7334 22.0305C19.8712 22.0738 20.0151 22.0758 20.1571 22.0965C20.2949 22.1027 20.4265 22.0944 20.5622 22.0903C20.7021 22.0758 20.8481 22.0428 20.9921 22.0078C21.1422 21.9418 21.2924 21.9046 21.4322 21.7891C21.5001 21.7355 21.5741 21.6881 21.6338 21.6241C21.6913 21.5581 21.7469 21.488 21.7983 21.4179C21.8538 21.3478 21.8785 21.2714 21.9155 21.1951C21.9505 21.1188 21.9834 21.0425 21.9978 20.9682C22.1438 20.3639 22.041 19.8586 21.9258 19.3924C21.6667 18.4643 21.2759 17.6413 20.846 16.8431C20.4183 16.0469 19.9411 15.2858 19.4516 14.5392L18.6948 13.4377L18.3163 12.8912L18.1271 12.621L18.0366 12.4869L17.9996 12.4271C17.9811 12.4003 17.9605 12.3734 17.9358 12.3508C17.8885 12.3013 17.833 12.2683 17.7898 12.2435C17.7446 12.2641 17.6767 12.2971 17.6212 12.3549C17.5697 12.4023 17.5224 12.4993 17.5183 12.5116L17.4463 12.6828C17.4073 12.7942 17.3682 12.9077 17.3373 13.0211C17.2756 13.248 17.2366 13.4728 17.1975 13.6976C17.1255 14.1493 17.0803 14.6031 17.0535 15.0569C17.0144 15.9644 17.0432 16.8761 17.1728 17.7877V17.7898ZM17.7528 13.7616C17.7651 13.5471 17.7816 13.3305 17.8124 13.1222C17.8165 13.083 17.8248 13.0458 17.8309 13.0067L17.9009 13.1469L18.2176 13.7368L18.8469 14.9084C19.2686 15.686 19.6758 16.4656 20.0501 17.2535C20.4121 18.0414 20.77 18.8438 20.9551 19.6379C21.0476 20.0256 21.0908 20.432 21.0147 20.6939C20.9715 20.8177 20.9345 20.9002 20.846 20.9455C20.8193 20.9847 20.7412 20.9868 20.6939 21.0198C20.6219 21.0301 20.5519 21.0487 20.4717 21.0569C20.1098 21.092 19.8321 21.0198 19.5524 20.8342C19.2768 20.6506 19.0423 20.3474 18.849 20.005C18.4521 19.314 18.232 18.4766 18.0572 17.6413C17.8926 16.7977 17.798 15.9314 17.761 15.0631C17.7384 14.6279 17.7343 14.1926 17.7548 13.7616H17.7528Z" fill="#7A1B29"/>
<path id="Vector_39" d="M17.9873 12.7179C18.9128 14.1431 19.8198 15.4859 20.5808 16.9049C20.9551 17.6165 21.3212 18.3405 21.5803 19.1057C21.7058 19.4894 21.7901 19.8895 21.7881 20.3C21.784 20.7083 21.6955 21.1291 21.4734 21.4963C21.7264 21.1497 21.8518 20.7228 21.8827 20.3C21.9135 19.8751 21.8457 19.4502 21.7346 19.05C21.5001 18.2477 21.1464 17.5093 20.7659 16.7874C19.9905 15.3498 19.0198 14.0441 17.9873 12.72V12.7179Z" fill="#7A1B29"/>
<path id="Vector_40" d="M20.9201 21.2797C20.5335 21.4344 20.1078 21.3519 19.7807 21.1559C19.4476 20.9579 19.1925 20.6588 18.9869 20.3371C18.5714 19.6915 18.3678 18.9428 18.2197 18.192C17.9359 16.6739 17.7549 15.1291 17.6891 13.4955C17.5616 15.1332 17.6459 16.7193 17.9359 18.2642C18.0881 19.0335 18.3287 19.8194 18.8141 20.4753C19.0527 20.7991 19.3529 21.0961 19.7293 21.2756C20.1016 21.4509 20.5582 21.4798 20.9201 21.2797Z" fill="#7A1B29"/>
<path id="Vector_41" d="M17.4257 17.6495C17.5553 18.5591 17.7692 19.4729 18.2196 20.3474C18.45 20.7805 18.7585 21.2096 19.2171 21.5334C19.3302 21.6138 19.4495 21.6901 19.5811 21.7458C19.7066 21.8139 19.8465 21.8531 19.9863 21.8902C20.1241 21.9335 20.2681 21.9356 20.41 21.9562C20.5478 21.9624 20.6794 21.9542 20.8152 21.95C20.955 21.9356 21.101 21.9026 21.245 21.8675C21.3951 21.8015 21.5453 21.7644 21.6851 21.6489C21.753 21.5953 21.827 21.5478 21.8867 21.4839C21.9443 21.4179 21.9998 21.3478 22.0512 21.2776C22.1068 21.2075 22.1314 21.1312 22.1685 21.0549C22.2034 20.9786 22.2363 20.9022 22.2507 20.828C22.3967 20.2236 22.2939 19.7183 22.1787 19.2522C21.9196 18.324 21.5288 17.501 21.099 16.7028C20.6712 15.9067 20.194 15.1456 19.7045 14.3989L18.9477 13.2975L18.5693 12.7509L18.38 12.4807L18.2895 12.3466L18.2525 12.2868C18.234 12.26 18.2134 12.2332 18.1888 12.2105C18.1415 12.161 18.0859 12.128 18.0427 12.1032C17.9975 12.1239 17.9296 12.1569 17.8741 12.2146C17.8227 12.2621 17.7754 12.359 17.7713 12.3714L17.6993 12.5426C17.6602 12.654 17.6211 12.7674 17.5903 12.8808C17.5286 13.1077 17.4895 13.3325 17.4504 13.5574C17.3784 14.0091 17.3332 14.4628 17.3064 14.9166C17.2674 15.8242 17.2962 16.7358 17.4257 17.6475V17.6495ZM18.0057 13.6213C18.0181 13.4068 18.0345 13.1902 18.0654 12.9819C18.0695 12.9427 18.0777 12.9056 18.0839 12.8664L18.1538 13.0067L18.4705 13.5966L19.0999 14.7681C19.5215 15.5457 19.9287 16.3254 20.303 17.1133C20.665 17.9012 21.0229 18.7035 21.208 19.4976C21.3005 19.8854 21.3437 20.2917 21.2676 20.5537C21.2244 20.6774 21.1874 20.7599 21.099 20.8053C21.0722 20.8445 20.9941 20.8465 20.9468 20.8795C20.8748 20.8899 20.8049 20.9084 20.7247 20.9167C20.3627 20.9517 20.085 20.8795 19.8053 20.6939C19.5297 20.5103 19.2953 20.2071 19.1019 19.8648C18.705 19.1738 18.4849 18.3364 18.3101 17.501C18.1456 16.6574 18.051 15.7911 18.0139 14.9228C17.9913 14.4876 17.9872 14.0524 18.0078 13.6213H18.0057Z" fill="#EB690C"/>
<path id="Vector_42" d="M18.2402 12.5776C19.1657 14.0029 20.0727 15.3456 20.8337 16.7647C21.208 17.4763 21.5741 18.2002 21.8333 18.9655C21.9587 19.3491 22.0431 19.7492 22.041 20.1597C22.0369 20.5681 21.9484 20.9889 21.7284 21.356C21.9814 21.0095 22.1068 20.5825 22.1377 20.1597C22.1685 19.7348 22.1006 19.3099 21.9896 18.9098C21.7551 18.1074 21.4014 17.369 21.0209 16.6471C20.2455 15.2095 19.2747 13.9039 18.2423 12.5797L18.2402 12.5776Z" fill="#FEAA0F"/>
<path id="Vector_43" d="M21.1731 21.1394C20.7864 21.2941 20.3607 21.2116 20.0337 21.0157C19.7005 20.8177 19.4455 20.5186 19.2398 20.1968C18.8243 19.5512 18.6207 18.8025 18.4726 18.0517C18.1888 16.5337 18.0078 14.9888 17.942 13.3552C17.8145 14.9929 17.8988 16.5791 18.1888 18.1239C18.341 18.8933 18.5816 19.6791 19.067 20.335C19.3056 20.6588 19.6059 20.9559 19.9822 21.1353C20.3545 21.3106 20.8111 21.3395 21.1731 21.1394Z" fill="#FEAA0F"/>
<g id="Vector_44" style="mix-blend-mode:hard-light" opacity="0.6">
<path d="M18.9579 15.2054C21.2367 14.8589 21.8948 16.3254 19.8916 17.1731C19.1142 17.5031 17.4297 17.072 16.3747 16.28C13.2691 16.9565 10.0935 16.478 7.34169 14.8836C7.12985 15.259 7.00645 15.6633 6.79667 16.0387C6.73497 15.5086 6.75759 14.9641 6.89333 14.4463C6.16321 14.403 5.51535 13.9039 5.32202 13.1964C5.64492 12.8169 6.19817 12.4683 6.66298 12.293C10.2889 14.4051 15.2024 14.1411 18.9599 15.2054H18.9579Z" fill="#603813"/>
</g>
<path id="Vector_45" d="M11.5334 15.7128C9.3574 15.3972 7.88687 14.3618 6.22301 13.3181C6.04202 13.4852 5.70883 13.5656 5.46203 13.5656C4.80801 13.3078 4.08816 12.6148 4.18894 11.9176C4.27738 11.3092 4.6846 10.7853 5.26048 10.5769C5.11445 10.3666 5.05892 10.2015 4.98077 9.96022C4.8368 9.50852 5.08771 9.00525 5.46203 8.71236C5.83429 8.41947 6.30733 8.29159 6.76392 8.1699C7.29866 8.02758 7.80254 7.95539 8.30232 7.72026C9.79342 7.01692 11.5272 7.08498 13.0862 7.61919C15.2354 8.35553 17.2859 9.61783 19.5442 9.86122C20.589 9.97466 21.7921 10.183 22.7279 10.6842C23.0673 10.8657 23.24 11.206 23.3182 11.5711C23.3696 11.8145 23.2503 12.4126 23.3532 12.588C23.5054 12.8478 23.5753 13.2005 23.5115 13.4976C23.4478 13.7925 23.2709 14.0627 23.0241 14.238C22.9912 14.6918 22.8164 15.1167 22.4852 15.4261C22.1767 15.7128 21.2903 15.7169 21.2903 15.7169C20.8584 15.719 20.4656 16.1913 20.0152 16.1975C19.03 16.214 18.2094 15.7251 17.5389 15.0569C15.5809 15.3663 13.4913 16.0015 11.5293 15.7148L11.5334 15.7128Z" fill="#B0481B"/>
<g id="Vector_46" style="mix-blend-mode:hard-light" opacity="0.6">
<path d="M22.9911 11.6804C23.1166 12.0641 23.0323 12.5096 22.7752 12.821C22.4091 13.2665 21.9093 13.7141 21.3375 13.7946C20.9982 13.842 20.6609 13.9348 20.3277 13.8585C20.1673 13.8214 19.9781 13.8399 19.8135 13.8503C20.3092 13.974 20.809 14.0751 21.319 14.0606C21.8291 14.0441 22.3556 13.8688 22.6908 13.4811C22.8554 13.6852 22.8924 14.007 22.7011 14.1865C22.4728 14.403 22.1109 14.3927 21.7962 14.3886C21.7448 14.5082 21.6296 14.6175 21.5165 14.6815C21.4034 14.7434 21.2758 14.7784 21.1504 14.8073C20.8604 14.8754 20.5622 14.9187 20.266 14.9372C21.0517 15.1724 21.9607 15.061 22.6621 14.634C22.6271 14.9764 22.4276 15.2755 22.1253 15.4384C21.8209 15.6014 21.4671 15.6447 21.1236 15.6385C20.6177 16.0222 19.9328 16.0717 19.3179 15.917C18.7029 15.7623 18.1579 15.4054 17.6746 14.995C17.4093 14.962 17.146 14.8857 16.8807 14.8527C16.8108 14.8444 16.7408 14.8362 16.6771 14.8073C16.6133 14.7805 16.5537 14.731 16.5311 14.665C16.8457 14.6691 17.2057 14.5557 17.5018 14.4463C17.1398 14.5062 16.7881 14.3721 16.4652 14.1968C16.5907 14.1844 16.7059 14.0998 16.819 14.0421C16.5969 14.0194 16.4035 13.9451 16.1897 13.8812C15.9758 13.8152 15.7701 13.7038 15.6282 13.5306C16.2143 13.7471 16.9136 13.6873 17.5327 13.611C18.1538 13.5326 18.7646 13.3841 19.3878 13.3222C19.867 13.2748 20.3503 13.2769 20.8295 13.2274C21.3087 13.1779 21.7921 13.0706 22.2055 12.821C22.6189 12.5715 22.9171 12.1631 22.9932 11.6866L22.9911 11.6804Z" fill="#603813"/>
</g>
<g id="Vector_47" style="mix-blend-mode:hard-light" opacity="0.6">
<path d="M16.2287 15.0651C15.2003 15.6756 13.9211 15.6117 12.7282 15.5148C11.6937 15.4302 10.6509 15.3333 9.65551 15.0383C8.79992 14.7846 7.98753 14.3845 7.26152 13.8626C7.07642 13.7306 6.89749 13.5904 6.72473 13.4419C6.49232 13.2418 6.49438 13.1985 6.21878 13.314C5.8239 13.479 5.3632 13.4687 4.98888 13.2521C4.5508 13.0005 4.27521 12.489 4.30606 11.9836C4.57754 12.3755 5.13902 12.5426 5.60589 12.4498C5.36731 12.2353 5.21512 11.9547 5.09171 11.6577C5.94524 13.0397 11.5415 15.9232 16.2307 15.0651H16.2287Z" fill="#603813"/>
</g>
<g id="Vector_48" style="mix-blend-mode:hard-light" opacity="0.6">
<path d="M5.32213 10.0551C5.91034 11.0885 6.80705 11.9259 7.821 12.5426C8.83495 13.1593 9.96819 13.5594 11.124 13.8296C12.3519 14.1184 13.627 14.2628 14.8775 14.0957C13.1622 13.71 11.5169 13.283 9.86741 12.6705C8.22 12.0579 6.59727 11.2658 5.32007 10.0551H5.32213Z" fill="#603813"/>
</g>
<g id="Vector_49" style="mix-blend-mode:hard-light" opacity="0.6">
<path d="M14.2461 12.623C12.3128 12.3074 10.3569 11.9011 8.63953 10.9585C7.98344 10.5976 7.3397 10.1149 6.72681 9.68177C6.73092 9.47758 6.73915 9.25688 6.86255 9.09394C6.99006 8.92893 7.20396 8.86499 7.40551 8.81136C7.91557 8.67729 8.4318 8.43185 8.95831 8.46278C9.06115 8.46897 9.17838 8.52672 9.26065 8.58654C10.1676 8.32253 11.1549 8.31015 12.0907 8.43185C11.5456 8.40503 11.0027 8.58035 10.5173 8.83405C11.5765 8.72061 12.6274 8.93512 13.5859 9.3992C12.6192 9.01968 11.5497 8.93305 10.5296 9.12487C11.3358 9.02175 12.9195 9.52295 12.9195 9.52295C12.9195 9.52295 15.0687 10.6202 16.2246 10.7213C17.3352 10.8183 18.5075 11.0225 19.5749 11.3463C18.8798 11.0678 18.1476 10.8224 17.4134 10.6821C18.8263 10.7193 20.2516 11.0307 21.5473 11.5938C21.5638 11.435 21.4054 11.3195 21.2635 11.2452C20.6465 10.9234 19.9595 10.6986 19.2726 10.5996C20.0747 10.6739 20.8912 10.7523 21.6296 11.074C21.8167 11.1545 22.0018 11.2555 22.1314 11.4123C22.263 11.569 22.3309 11.7918 22.2589 11.9816C21.5987 12.4683 20.7102 12.5013 19.8917 12.524C18.0592 12.5735 16.0765 12.5694 14.244 12.621L14.2461 12.623Z" fill="#603813"/>
</g>
<path id="Vector_50" d="M21.8599 12.3013C21.6686 12.3858 21.4712 12.4436 21.2717 12.4951C20.8727 12.5983 20.4675 12.6519 20.0624 12.6746C19.6572 12.7055 19.252 12.722 18.8489 12.7303C18.0407 12.7488 17.2344 12.7406 16.4282 12.7365C15.7001 12.7365 14.97 12.7303 14.2502 12.7715C14.6265 12.9551 14.9803 13.1923 15.3053 13.4872C14.5443 13.2005 13.8841 12.9324 13.1827 12.621C11.6382 12.2951 10.1142 11.8475 8.68683 11.1441C8.27138 10.9338 7.86004 10.7089 7.47544 10.4408C7.28211 10.3088 7.09289 10.1706 6.91396 10.018L6.77822 9.90453C6.73709 9.8674 6.68567 9.83646 6.6322 9.76015C6.53759 9.61783 6.53964 9.45695 6.57049 9.32288C6.63014 9.04031 6.87694 8.84642 7.09289 8.74742C7.3109 8.64016 7.54331 8.57004 7.76954 8.51228C8.21173 8.39678 8.65598 8.32046 9.10434 8.24621C9.32852 8.04614 9.58149 7.94507 9.84269 7.86669C10.1203 7.78832 10.4042 7.75944 10.6859 7.75738C10.9677 7.75119 11.2453 7.79244 11.5209 7.83782C11.6567 7.86669 11.7924 7.90176 11.9261 7.93476L12.3231 8.06058L11.9179 7.97601L11.5107 7.91826C11.2371 7.89557 10.9636 7.87701 10.6942 7.90588C10.4247 7.92857 10.1594 7.98014 9.91056 8.07295C9.66787 8.16371 9.42518 8.30603 9.25653 8.46072L9.2483 8.46897C9.22979 8.48547 9.20717 8.49785 9.18043 8.50197C8.73002 8.56797 8.27755 8.65254 7.83742 8.76392C7.61735 8.82167 7.40551 8.88561 7.21012 8.98255C7.01474 9.07537 6.8646 9.20531 6.82552 9.38682C6.80496 9.47551 6.81113 9.56626 6.84815 9.61783C6.85843 9.63845 6.90574 9.67352 6.95098 9.71271L7.08055 9.82202C7.25332 9.96847 7.43636 10.1025 7.62352 10.2304C7.99578 10.4903 8.39683 10.7089 8.80406 10.9152C10.4391 11.7217 12.2284 12.1919 14.026 12.5261C14.8322 12.4683 15.6343 12.4766 16.4344 12.4786C17.2406 12.4828 18.0448 12.491 18.8469 12.4724C19.649 12.4621 20.449 12.3941 21.2326 12.2848C21.428 12.2517 21.6213 12.2126 21.8064 12.1486C21.9895 12.0847 22.1725 12.0042 22.3021 11.8722C22.3638 11.8062 22.4173 11.7237 22.442 11.6392C22.4605 11.5525 22.442 11.4556 22.3988 11.371C22.3103 11.1998 22.1458 11.0637 21.9566 10.9956C22.152 11.0451 22.335 11.1648 22.4502 11.3422C22.5078 11.4308 22.5427 11.5422 22.5283 11.6557C22.5078 11.767 22.4543 11.864 22.3864 11.9506C22.2445 12.1177 22.0532 12.2208 21.864 12.3033L21.8599 12.3013Z" fill="#7A1B29"/>
<path id="Vector_51" d="M13.588 14.1246C11.9982 14.2483 10.4392 13.9431 9.0427 13.3057C7.64621 12.6643 6.39369 11.6825 5.44556 10.3975C6.5356 11.5422 7.78812 12.4044 9.14965 13.0335C10.5112 13.6564 11.992 14.0524 13.588 14.1266V14.1246Z" fill="#7A1B29"/>
<path id="Vector_52" d="M16.7183 14.0751C17.216 14.1081 17.6685 13.9389 18.1333 13.8173C18.3657 13.7554 18.6104 13.7017 18.8593 13.6832C19.1081 13.6667 19.3529 13.6791 19.5935 13.7018C20.0727 13.7451 20.5355 13.8296 20.9982 13.7904C21.4528 13.7513 21.9423 13.6069 22.2508 13.2005C22.0286 13.6626 21.5165 13.9183 21.0332 14.005C20.5355 14.0998 20.0439 14.0338 19.5771 13.9926C19.1061 13.941 18.6618 13.941 18.1888 14.0297C17.7219 14.1019 17.2078 14.2071 16.7183 14.073V14.0751Z" fill="#7A1B29"/>
<path id="Vector_53" d="M21.8722 14.3659C21.3766 14.9042 20.6259 15.127 19.9287 15.1167C19.2191 15.1064 18.5527 14.8877 17.8884 14.6134C18.598 14.6959 19.2664 14.8135 19.9266 14.8238C20.5806 14.8279 21.2552 14.7454 21.8743 14.3659H21.8722Z" fill="#7A1B29"/>
<path id="Vector_54" d="M21.8148 15.4426C22.2488 15.3229 22.6436 15.0775 22.9645 14.667C22.8267 15.1662 22.4071 15.587 21.9012 15.721C21.4055 15.8592 20.8728 15.8118 20.4019 15.5952C20.9099 15.6179 21.3788 15.5601 21.8148 15.4426Z" fill="#7A1B29"/>
<path id="Vector_55" d="M5.05687 13.1284C5.2358 13.2707 5.43736 13.3779 5.6636 13.4109C5.87955 13.4398 6.12018 13.4089 6.32585 13.2624C6.06876 13.0046 5.82196 12.7344 5.59984 12.4374C7.21845 14.0111 9.23401 14.8815 11.3071 15.2466C13.3104 15.589 15.3979 15.4983 17.5183 15.0197C17.4957 14.9867 17.4731 14.9537 17.4505 14.9207C17.5019 14.9496 17.5513 14.9744 17.6027 15.0012C17.6623 14.9867 17.722 14.9764 17.7816 14.962C17.7322 14.9826 17.6829 14.9971 17.6335 15.0177C18.1559 15.2961 18.6372 15.5416 19.1267 15.7004C19.6676 15.8675 20.2517 15.9788 20.9016 15.7829C20.4224 16.2903 19.6203 16.4058 18.9745 16.1892C18.3678 15.9912 17.8947 15.5643 17.5389 15.0507C15.5069 15.8324 13.3371 16.1067 11.2413 15.754C9.42734 15.4488 7.66475 14.6052 6.33202 13.2686C6.18805 13.4852 5.92274 13.6151 5.65537 13.6275C5.36949 13.644 5.08978 13.5306 4.87588 13.3594C4.43575 13.0067 4.26505 12.4745 4.16016 11.9589C4.44604 12.4064 4.69284 12.8417 5.05276 13.1284H5.05687Z" fill="#7A1B29"/>
<path id="Vector_56" d="M22.553 14.2277C22.9067 14.1019 23.1391 13.8647 23.281 13.6007C23.4127 13.3346 23.4723 13.0005 23.3613 12.6375C23.6471 12.8973 23.7294 13.3676 23.5422 13.7306C23.3592 14.0978 22.9314 14.3061 22.553 14.2277Z" fill="#7A1B29"/>
<path id="Vector_57" d="M8.5182 11.2947C7.77574 11.0328 7.09086 10.6347 6.51293 10.1273C6.25379 9.90041 6.00698 9.63227 5.94734 9.30638C5.87947 8.93306 6.09954 8.52879 6.46151 8.35966C6.04195 8.45041 5.67791 8.67523 5.41054 8.99081C5.3036 9.11663 5.21105 9.26513 5.20488 9.42601C5.19871 9.60133 5.29331 9.76634 5.40232 9.90866C5.74167 10.3501 6.24762 10.6615 6.78441 10.8698C7.32121 11.0802 7.9485 11.1792 8.5182 11.2947Z" fill="#CC5F29"/>
<path id="Vector_58" d="M7.90736 12.9427C6.9222 12.3755 6.03782 11.6309 5.31181 10.7543C5.02593 10.7935 4.75856 10.9461 4.6146 11.1978C4.47063 11.4494 4.45212 11.7691 4.56318 12.0352C4.57141 11.7629 4.79764 11.5051 5.05678 11.4185C5.75811 12.2414 6.85227 12.72 7.90736 12.9427Z" fill="#CC5F29"/>
<path id="Vector_59" d="M19.7622 10.0077C20.2106 9.9891 20.6507 10.1067 21.0826 10.2304C21.3459 10.3067 21.6091 10.3851 21.8703 10.4676C22.1151 10.5439 22.3598 10.6264 22.5758 10.7626C22.7917 10.9008 22.9768 11.1029 23.0447 11.3504C23.0899 11.5175 23.1969 11.6825 23.1537 11.8516C23.1208 11.7567 23.0509 11.6577 22.9706 11.6C22.837 11.2823 22.5943 10.9915 22.2981 10.8162C22.113 10.7069 21.9032 10.6471 21.6976 10.5893C21.0785 10.414 20.3833 10.185 19.7643 10.0097L19.7622 10.0077Z" fill="#CC5F29"/>
<path id="Vector_60" d="M7.39526 8.18846C7.80043 8.04821 8.24056 7.9492 8.62105 7.7512C9.29153 7.40468 10.0628 7.29124 10.8176 7.32011C11.5724 7.34899 12.3128 7.51606 13.045 7.69963C11.957 7.5635 10.832 7.45624 9.7728 7.74088C9.37997 7.84814 9.00359 8.00902 8.61282 8.12659C8.22205 8.24415 7.79426 8.2689 7.39526 8.1864V8.18846Z" fill="#CC5F29"/>
<path id="Vector_61" d="M18.9559 5.74842C15.6076 6.46001 14.427 8.95368 13.4954 12.3817C13.7216 12.4518 13.9417 12.5385 14.1556 12.6375C14.3016 12.5508 14.4805 12.5075 14.6862 12.5467C16.5269 12.885 18.3944 12.4931 20.2454 12.4374C21.7118 10.4387 23.4888 9.4652 26.4546 9.44457C24.1099 7.45005 21.9751 5.92374 18.9559 5.74842Z" fill="#5DB02A"/>
<path id="Vector_62" d="M14.1597 12.6354C14.3058 12.5508 14.4826 12.5075 14.6863 12.5467C16.1671 12.819 17.6623 12.6189 19.1554 12.5013C20.4183 10.4078 21.9032 8.83405 24.2828 8.64429C23.8241 8.28746 23.7419 8.00283 24.0936 7.97395C22.4379 6.78384 21.716 6.50126 20.0851 6.15269C19.7745 6.24757 19.1863 6.26407 18.7441 6.19806C16.0313 6.93441 15.0153 9.55595 13.9109 12.3384C13.9726 12.4023 14.0219 12.4931 14.0631 12.5921C14.096 12.6065 14.1268 12.623 14.1577 12.6375L14.1597 12.6354Z" fill="#A4CA1A"/>
<path id="Vector_63" d="M17.1708 10.4573C18.1724 10.9255 19.5196 10.6821 20.1366 10.0572C20.7536 9.43014 20.3464 8.53291 19.2399 8.09152C18.1334 7.65012 16.7986 7.79038 16.2967 8.39059C15.7928 8.99081 16.1713 9.99116 17.1729 10.4573H17.1708Z" fill="#5DB02A"/>
<path id="Vector_64" d="M24.7722 8.05233C24.1943 7.61713 23.5978 7.21699 22.9747 6.8746C21.7304 6.18569 20.3688 5.76905 18.9641 5.68449H18.958H18.9518C18.2134 5.84949 17.473 6.12175 16.7881 6.5714C16.1033 7.01898 15.4924 7.6625 15.0153 8.42566C14.5402 9.19501 14.1885 10.0572 13.9006 10.9317C13.7463 11.4082 13.6126 11.8929 13.4851 12.3776C13.4933 12.3796 13.5016 12.3817 13.5077 12.3838C13.6435 11.9011 13.7874 11.4226 13.9479 10.9523C14.242 10.0819 14.5957 9.23007 15.0688 8.47516C15.5439 7.72438 16.1485 7.09942 16.8231 6.66834C17.4956 6.23107 18.2237 5.97737 18.9538 5.81237C20.3483 5.88249 21.6995 6.28057 22.9418 6.95091C23.5649 7.28505 24.1614 7.67901 24.7434 8.1039C25.3275 8.52467 25.8952 8.97843 26.4546 9.44045C25.9034 8.95987 25.3481 8.48754 24.7722 8.04821V8.05233Z" fill="#FFE699"/>
<path id="Vector_65" d="M23.7027 9.7849C22.7916 10.0572 21.8949 10.5625 21.1319 11.3092C20.7884 11.6515 20.4778 12.0352 20.1858 12.4394C20.2228 12.4394 20.2598 12.4353 20.2969 12.4333C20.3051 12.4312 20.3133 12.4291 20.3215 12.4271C20.593 12.0641 20.8789 11.7175 21.1915 11.4102C21.9381 10.6698 22.8142 10.1747 23.7151 9.88391C24.618 9.59308 25.5394 9.48376 26.4546 9.44251C25.5435 9.43426 24.6159 9.50645 23.7027 9.7849Z" fill="#89DEED"/>
<g id="Vector_66" style="mix-blend-mode:overlay" opacity="0.5">
<path d="M16.1836 7.29949C14.7747 9.00731 13.9891 10.3645 13.5222 12.3899C13.7402 12.458 13.95 12.5426 14.1577 12.6375C14.3038 12.5508 14.4827 12.5075 14.6884 12.5467C16.4509 12.8705 18.2361 12.5281 20.007 12.4477C20.5006 11.7175 21.0086 11.1008 21.4713 10.7646C18.7442 12.7571 14.2421 10.6883 16.1836 7.29742V7.29949Z" fill="#262159"/>
</g>
<g id="Vector_67" style="mix-blend-mode:overlay" opacity="0.3">
<path d="M25.8973 9.14963C24.1964 7.48924 22.0081 6.24551 18.9539 5.74636L18.2649 5.96912C19.9575 7.35518 21.8538 8.53291 23.9845 9.47139L25.8973 9.14756V9.14963Z" fill="#FFE9A6"/>
</g>
<path id="Vector_68" d="M14.6862 12.5467C15.0378 12.6106 15.3895 12.6436 15.7412 12.6622C15.2929 8.93099 14.5463 6.20013 12.3374 2.92887C9.64727 2.30803 6.61365 2.16571 3.96875 3.0155C6.55195 5.6226 8.68679 8.39884 10.254 11.5793C10.6674 11.7052 11.0767 11.8186 11.4695 11.9135C12.3765 12.1342 13.3143 12.2497 14.1535 12.6395C14.2995 12.5529 14.4764 12.5116 14.682 12.5488L14.6862 12.5467Z" fill="#5DB02A"/>
<path id="Vector_69" d="M14.6863 12.5467C14.8015 12.5673 14.9167 12.5776 15.0319 12.5941C15.0771 12.3301 15.1779 12.1342 15.3136 12.0826C14.8282 9.02587 14.1701 6.48271 12.4034 3.89829C11.9859 3.82403 11.4285 3.52702 11.2044 3.21763C9.4315 2.95981 8.20777 2.84224 6.26008 3.09388C6.53979 3.39295 6.34646 3.70028 5.86108 3.8096C8.10287 6.19188 9.83461 8.89593 11.1838 11.8392C11.2805 11.864 11.3792 11.8908 11.4738 11.9135C12.3808 12.1342 13.3186 12.2497 14.1578 12.6395C14.3038 12.5529 14.4827 12.5116 14.6884 12.5488L14.6863 12.5467Z" fill="#A4CA1A"/>
<path id="Vector_70" d="M12.6809 9.26307C11.6937 9.51058 10.4186 9.02175 9.81186 8.05439C9.20514 7.08704 9.72548 6.11969 11.0212 6.05575C12.3149 5.99181 13.5324 6.6209 13.843 7.39643C14.1535 8.17196 13.6682 9.01556 12.683 9.26307H12.6809Z" fill="#5DB02A"/>
<path id="Vector_71" d="M14.6862 12.5467C15.0317 12.6106 15.3793 12.6416 15.729 12.6601C15.8133 9.04031 15.4575 6.27851 13.7977 2.80099C11.231 1.78826 8.24879 1.19424 5.50928 1.63975C7.81688 4.79345 9.60003 8.05439 10.6654 11.6969C10.9389 11.7753 11.2104 11.8475 11.4737 11.9114C12.3807 12.1321 13.3185 12.2476 14.1577 12.6375C14.3037 12.5508 14.4806 12.5096 14.6862 12.5467Z" fill="#5DB02A"/>
<path id="Vector_72" d="M14.6862 12.5467C14.822 12.5715 14.9577 12.5838 15.0934 12.6024C15.1737 12.4353 15.2744 12.3219 15.3834 12.2992C15.3546 9.20325 15.0811 6.58996 13.7155 3.77247C13.3144 3.63634 12.8064 3.25888 12.6316 2.92062C10.9163 2.40291 9.72343 2.10384 7.7593 2.06258C7.9917 2.40085 7.75518 2.67517 7.25952 2.71024C9.21749 5.53598 10.5667 8.62573 11.4655 11.9114C11.4655 11.9114 11.4696 11.9114 11.4716 11.9114C12.3786 12.1321 13.3165 12.2476 14.1556 12.6375C14.3016 12.5508 14.4806 12.5096 14.6862 12.5467Z" fill="#A4CA1A"/>
<path id="Vector_73" d="M13.1993 9.11869C12.1874 9.21563 10.9966 8.54323 10.54 7.49544C10.0834 6.44764 10.7415 5.56898 12.0311 5.69892C13.3206 5.82887 14.4292 6.63121 14.6225 7.44593C14.8158 8.26065 14.2112 9.01969 13.1993 9.11869Z" fill="#5DB02A"/>
<path id="Vector_74" d="M14.6862 12.5467C15.5171 12.6993 16.3521 12.6993 17.1892 12.654C17.4565 8.92274 17.3043 5.75667 15.6816 2.09971C13.0902 0.977662 10.0298 0.325886 7.22656 0.798217C9.42516 4.03854 10.6098 7.93889 11.2248 11.8495C11.307 11.8702 11.3914 11.8929 11.4716 11.9135C12.3786 12.1342 13.3164 12.2497 14.1555 12.6395C14.3016 12.5529 14.4784 12.5116 14.6841 12.5488L14.6862 12.5467Z" fill="#5DB02A"/>
<path id="Vector_75" d="M14.6862 12.5467C15.3114 12.6622 15.9387 12.687 16.566 12.6766C16.6379 12.5962 16.714 12.5384 16.7901 12.5178C16.9218 9.18469 16.821 6.28469 15.5541 3.15781C15.1489 3.00724 14.645 2.59473 14.4825 2.22346C12.9359 1.68925 11.1445 1.3118 9.50741 1.27467C9.71925 1.65006 9.44365 1.95739 8.93359 1.99452C10.4741 5.26371 11.414 8.5226 11.9734 12.0249C12.722 12.1837 13.4748 12.3198 14.1596 12.6375C14.3057 12.5508 14.4825 12.5096 14.6882 12.5467H14.6862Z" fill="#A4CA1A"/>
<path id="Vector_76" d="M14.421 9.17025C13.2138 9.35383 12.0003 8.62367 11.6795 7.4315C11.3566 6.23726 12.1895 5.22247 13.584 5.33179C14.9784 5.4411 16.1075 6.30945 16.2515 7.20667C16.3955 8.10596 15.6283 8.98668 14.4231 9.17025H14.421Z" fill="#5DB02A"/>
<g id="Group_2" style="mix-blend-mode:overlay" opacity="0.4">
<path id="Vector_77" d="M17.0125 8.28953C16.4531 9.60545 12.4014 8.60716 10.067 6.57964L10.3735 7.68519C9.98888 7.76975 9.46854 7.50368 8.90295 7.11798L9.43975 8.18227C8.95437 8.26684 8.41757 8.01314 7.85815 7.56143L8.52658 8.52054C9.09422 9.35795 9.56521 10.2944 10.2542 11.5752C10.6676 11.7031 11.0789 11.8145 11.4738 11.9114C11.5088 11.9197 11.5437 11.9259 11.5766 11.9341L16.8171 11.899C17.103 10.7626 17.1688 9.56008 17.0125 8.28953Z" fill="#19155C"/>
</g>
<path id="Vector_78" d="M15.5994 2.15953C12.9915 0.98798 10.1697 0.608464 7.45898 0.841536C10.2705 0.827098 13.0059 1.2128 15.4266 2.43798C15.6528 2.69992 16.1793 4.24686 16.6154 5.3586C16.2801 4.08186 15.8996 2.66692 15.5994 2.15953Z" fill="#C2DE87"/>
<path id="Vector_79" d="M5.71484 1.71194C6.24958 1.60469 6.96531 1.58406 7.7448 1.59438L8.02862 2.04402C7.24296 1.8687 6.47171 1.75113 5.71484 1.71194Z" fill="#C2DE87"/>
<path id="Vector_80" d="M6.2414 2.60504C5.42901 2.77417 4.75647 2.90412 4.25464 3.08975C4.97037 3.04643 5.72928 3.04025 6.53962 3.10831L6.2414 2.60504Z" fill="#C2DE87"/>
<path id="Vector_81" d="M8.96239 9.33113C9.42515 10.0654 9.85705 10.8183 10.2704 11.5814C10.2704 11.5814 10.2746 11.5814 10.2766 11.5814C9.90847 10.7914 9.49713 10.0221 9.05083 9.27544C8.59013 8.50197 8.08624 7.75532 7.55767 7.02929C7.01882 6.30738 6.45734 5.6061 5.85679 4.93576C5.25829 4.26542 4.631 3.6219 3.96875 3.01344C4.58987 3.66109 5.19659 4.32318 5.77864 5.00383C6.35862 5.68655 6.92215 6.3837 7.44867 7.10973C7.98341 7.82751 8.48524 8.5721 8.96239 9.33113Z" fill="#89DEED"/>
<path id="Vector_82" d="M5.50928 1.64182C6.09543 2.36578 6.6384 3.12481 7.14434 3.9086C7.65029 4.69238 8.11305 5.50297 8.54906 6.32801C8.9748 7.15717 9.3738 8.00076 9.73372 8.86292C10.0916 9.72302 10.4186 10.5976 10.7045 11.4845C10.3651 10.6161 10.0155 9.75396 9.63705 8.90418C9.25862 8.05439 8.86168 7.21286 8.42772 6.39195C8.00404 5.56485 7.54129 4.75838 7.05591 3.96635C6.57053 3.17432 6.05224 2.40085 5.50928 1.64388V1.64182Z" fill="#89DEED"/>
<path id="Vector_83" d="M7.22656 0.798218C7.76953 1.56756 8.25491 2.38022 8.68475 3.22175C9.1146 4.06329 9.48275 4.9337 9.80565 5.82267C10.1183 6.71371 10.3856 7.62125 10.5934 8.54322C10.8011 9.4652 10.9615 10.3954 11.0623 11.3339C10.906 10.4037 10.7209 9.47964 10.4926 8.56798C10.2643 7.65631 9.99898 6.7529 9.67814 5.86805C9.36758 4.98114 8.99943 4.11485 8.5922 3.26919C8.18292 2.42353 7.72428 1.60056 7.22862 0.80028L7.22656 0.798218Z" fill="#89DEED"/>
<path id="Vector_84" d="M14.6863 12.5467C16.2391 12.8313 17.8104 12.5983 19.3755 12.4848C20.0419 9.77665 21.1833 7.36755 23.2894 4.82645C20.916 2.90618 18.4089 1.47062 15.7084 0.0783768C13.987 4.01173 12.4568 7.88732 12.4671 12.1259C13.0491 12.2476 13.6209 12.3899 14.1556 12.6375C14.3017 12.5508 14.4806 12.5075 14.6883 12.5446L14.6863 12.5467Z" fill="#5DB02A"/>
<path id="Vector_85" d="M14.6864 12.5467C15.906 12.7695 17.1359 12.6746 18.3658 12.5673C18.9087 10.0757 19.863 7.68726 21.4179 5.63292C21.0271 5.36891 20.9202 4.81614 21.2431 4.42837C19.6821 3.34552 18.7298 2.71643 16.9796 1.78001C16.7204 2.24822 16.1507 2.42973 15.7024 2.21109C14.312 5.50092 13.1171 8.68555 12.9587 12.2414C13.3721 12.3404 13.7732 12.4642 14.1578 12.6416C14.3038 12.555 14.4807 12.5137 14.6864 12.5508V12.5467Z" fill="#A4CA1A"/>
<path id="Vector_86" d="M15.6447 11.3092C16.8108 11.93 17.9873 11.4638 18.3287 10.3872C18.6701 9.31051 18.0942 7.95951 16.8808 7.29124C15.6673 6.62296 14.3922 7.01897 14.0919 8.13483C13.7916 9.25069 14.4785 10.6883 15.6447 11.3092Z" fill="#5DB02A"/>
<path id="Vector_87" d="M19.6427 2.2214C18.3717 1.43556 17.0595 0.717779 15.733 0.0288762L15.6795 0L15.6548 0.0556898C15.155 1.19424 14.6553 2.33278 14.2172 3.50021C13.7791 4.66557 13.3863 5.84949 13.0798 7.0561C12.7755 8.26271 12.5595 9.49614 12.4711 10.7399C12.4382 11.1998 12.432 11.6619 12.4382 12.1218C12.4567 12.1259 12.4731 12.1301 12.4916 12.1321C12.504 10.4284 12.7467 8.7268 13.1806 7.08085C13.4953 5.88043 13.8943 4.70476 14.3406 3.54558C14.7807 2.40704 15.2476 1.2788 15.735 0.156756C17.0451 0.827096 18.3429 1.52425 19.5996 2.28741C20.8726 3.065 22.1149 3.89416 23.2872 4.82439C22.1354 3.87353 20.9158 3.00106 19.6427 2.21934V2.2214Z" fill="#FFE699"/>
<path id="Vector_88" d="M21.1832 7.75325C20.5765 8.79486 20.0829 9.90453 19.7065 11.0513C19.5543 11.5257 19.4268 12.0063 19.3096 12.491C19.3548 12.4869 19.398 12.4848 19.4433 12.4807C19.5584 12.0146 19.688 11.5505 19.8381 11.0946C20.2022 9.95197 20.6917 8.85261 21.2758 7.80688C21.8619 6.76115 22.5447 5.77111 23.2893 4.82645C22.5057 5.73605 21.7899 6.70959 21.1832 7.75325Z" fill="#89DEED"/>
<g id="Vector_89" style="mix-blend-mode:overlay" opacity="0.5">
<path d="M14.6863 12.5467C14.7562 12.5591 14.8241 12.5653 14.894 12.5756C13.9027 11.2885 13.1705 9.36207 13.2363 7.3593C12.8312 8.90211 12.57 10.4862 12.572 12.1507C13.1171 12.2662 13.6518 12.4064 14.1536 12.6395C14.2997 12.5529 14.4786 12.5096 14.6843 12.5467H14.6863Z" fill="#262159"/>
</g>
<g id="Vector_90" style="mix-blend-mode:overlay" opacity="0.3">
<path d="M23.0385 4.85327C20.7618 3.06707 18.3369 1.5655 15.7702 0.336205L15.1593 1.77176C13.9829 5.05952 18.3287 9.3662 20.2414 9.39095C20.9469 7.72438 21.8148 6.15269 23.0385 4.8512V4.85327Z" fill="#FFE9A6"/>
</g>
<path id="Vector_91" d="M14.6863 12.5467C14.9927 12.6024 15.3012 12.6333 15.6097 12.654C15.4082 8.78454 13.9808 5.19977 12.391 1.5655C9.69058 2.95774 7.18348 4.39124 4.81006 6.31151C5.9618 7.70169 6.81739 9.05062 7.47141 10.4305C8.66018 11.1008 10.1595 11.5938 11.4717 11.9114C12.3787 12.1321 13.3165 12.2476 14.1557 12.6375C14.3017 12.5508 14.4806 12.5096 14.6863 12.5467Z" fill="#5DB02A"/>
<path id="Vector_92" d="M14.6863 12.5467C14.8076 12.5694 14.929 12.5797 15.0503 12.5962C14.7192 9.48789 13.6374 6.63327 12.3972 3.69409C11.9488 3.91272 11.3791 3.73328 11.12 3.26301C9.36768 4.19942 8.41749 4.82851 6.85646 5.91137C7.1773 6.3012 7.07241 6.85191 6.68164 7.11592C7.60509 8.3349 8.3126 9.67558 8.8535 11.0823C9.71731 11.4288 10.6346 11.7052 11.4737 11.9094C12.3807 12.1301 13.3186 12.2456 14.1577 12.6354C14.3037 12.5488 14.4806 12.5075 14.6863 12.5446V12.5467Z" fill="#A4CA1A"/>
<path id="Vector_93" d="M11.4717 11.9114C12.025 12.0455 12.5885 12.1404 13.1356 12.2806C13.8657 11.5587 14.24 10.4944 14.0055 9.62196C13.7053 8.5061 12.4281 8.11008 11.2167 8.77836C10.178 9.35176 9.61657 10.4222 9.6865 11.3937C10.2891 11.5979 10.8979 11.7732 11.4696 11.9114H11.4717Z" fill="#5DB02A"/>
<path id="Vector_94" d="M14.9166 8.56798C15.2683 9.90247 15.4925 11.272 15.5727 12.6519C15.5974 12.6519 15.62 12.654 15.6447 12.656C15.6406 12.5116 15.6365 12.3693 15.6262 12.2249C15.5377 10.9812 15.3218 9.74984 15.0174 8.54116C14.711 7.33249 14.3181 6.14857 13.8801 4.98527C13.444 3.81991 12.9422 2.6793 12.4424 1.54075L12.4177 1.48506L12.3643 1.51394C11.0398 2.20284 9.7276 2.92062 8.45451 3.70647C7.17936 4.48818 5.95975 5.3586 4.81006 6.31151C5.98031 5.38335 7.22461 4.55419 8.4977 3.77453C9.7564 3.01137 11.0521 2.31422 12.3622 1.64388C12.8497 2.76386 13.3165 3.89416 13.7567 5.03271C14.203 6.18982 14.604 7.36755 14.9166 8.56798Z" fill="#FFE699"/>
<path id="Vector_95" d="M7.37064 10.3748C7.43028 10.4099 7.49404 10.4429 7.5578 10.4779C7.36035 10.0572 7.15057 9.64052 6.91611 9.24038C6.31144 8.19671 5.59366 7.22317 4.81006 6.31357C5.55458 7.25617 6.2374 8.24827 6.82356 9.294C7.021 9.6467 7.19993 10.0097 7.37064 10.3769V10.3748Z" fill="#89DEED"/>
<g id="Vector_96" style="mix-blend-mode:overlay" opacity="0.5">
<path d="M14.1597 12.6354C14.3057 12.5508 14.4826 12.5075 14.6862 12.5467C14.9556 12.5962 15.225 12.6271 15.4965 12.6478C15.4163 11.3422 15.188 10.0799 14.863 8.84436C14.9083 10.1871 14.5895 11.4907 14.0774 12.5962C14.1041 12.6086 14.1309 12.623 14.1597 12.6354Z" fill="#262159"/>
</g>
<g id="Vector_97" style="mix-blend-mode:overlay" opacity="0.3">
<path d="M8.24273 10.8244C10.2912 10.3191 14.0426 6.34039 12.9402 3.25889L12.3294 1.82333C9.76263 3.05263 7.33779 4.55419 5.06104 6.34039C6.20661 7.55937 7.03957 9.01762 7.72033 10.5687C7.88898 10.6574 8.0638 10.744 8.24273 10.8265V10.8244Z" fill="#FFE9A6"/>
</g>
<path id="Vector_98" d="M7.25959 10.2902C7.78816 10.5749 8.32907 10.8348 8.88848 11.041C9.44379 11.2596 10.0135 11.4288 10.5935 11.5546C11.7493 11.8145 12.9669 11.9527 14.1001 12.4663L13.9788 12.458L14.1104 12.4353L14.2194 12.4271C14.2914 12.4209 14.3613 12.4209 14.4292 12.4188L14.8405 12.4147C15.1141 12.4147 15.3856 12.4168 15.657 12.4229L17.2859 12.458C18.3719 12.4786 19.4558 12.4972 20.5437 12.4642C20.0069 12.5529 19.4619 12.5962 18.919 12.6416C18.376 12.6787 17.831 12.6973 17.2859 12.7138C16.7409 12.7344 16.198 12.7365 15.655 12.7406L14.8405 12.7468L14.4374 12.755C14.3696 12.755 14.3037 12.7591 14.24 12.7653L14.1454 12.7715L14.0755 12.7818L13.9973 12.7942L13.9541 12.7756C12.8867 12.293 11.6897 12.1362 10.5215 11.8186C9.9374 11.6577 9.36358 11.4515 8.81444 11.1998C8.26942 10.9379 7.74085 10.6429 7.25342 10.2882L7.25959 10.2902Z" fill="#7A1B29"/>
</g>
</g>
<defs>
<linearGradient id="paint0_linear_309_113" x1="9.74002" y1="15.5416" x2="12.8467" y2="23.6292" gradientUnits="userSpaceOnUse">
<stop stop-color="#FFD705"/>
<stop offset="1" stop-color="#FEAA0F"/>
</linearGradient>
</defs>
</svg>
