<svg width="288" height="49" viewBox="0 0 288 49" fill="none" xmlns="http://www.w3.org/2000/svg">
<g clip-path="url(#clip0_46_102107)">
<path d="M95.7675 34.4001H84.2679L82.2224 39.6851H71.8539L85.0502 9.37158H95.1171L108.313 39.6851H97.8035L95.7675 34.4001ZM92.9397 27.0388L89.9988 19.4226L87.0768 27.0388H92.9397Z" fill="white"/>
<path d="M110.001 9.37158H120.2V39.6851H110.001V9.37158Z" fill="white"/>
<path d="M142.068 39.5341C140.004 39.0958 138.025 38.3278 136.205 37.2597L139.485 29.8134C141.008 30.6861 142.636 31.3615 144.33 31.8236C146.002 32.3154 147.734 32.5726 149.476 32.5881C150.505 32.6457 151.536 32.5047 152.512 32.1728C152.779 32.093 153.015 31.9304 153.184 31.7082C153.353 31.4861 153.448 31.2159 153.454 30.9365C153.454 30.3042 153.058 29.8323 152.267 29.5114C150.989 29.0629 149.678 28.7158 148.345 28.4733C146.366 28.0794 144.417 27.5497 142.511 26.8878C140.945 26.3236 139.548 25.3724 138.448 24.1225C137.221 22.6763 136.588 20.8179 136.676 18.9224C136.662 17.0652 137.222 15.249 138.278 13.7223C139.481 12.0572 141.141 10.7783 143.057 10.0416C145.517 9.08999 148.141 8.63455 150.777 8.70151C152.835 8.70093 154.886 8.92563 156.895 9.37159C158.749 9.77288 160.535 10.4471 162.192 11.3724L159.119 18.7714C156.526 17.37 153.639 16.6004 150.692 16.5253C148.059 16.5253 146.746 17.1545 146.752 18.4128C146.752 19.0168 147.148 19.4698 147.921 19.7718C149.179 20.1876 150.469 20.5032 151.776 20.7156C153.764 21.0605 155.721 21.5623 157.63 22.2162C159.211 22.7763 160.63 23.7198 161.758 24.9625C162.989 26.4057 163.617 28.268 163.512 30.1626C163.527 32.0113 162.967 33.819 161.909 35.3344C160.701 36.9943 159.043 38.2718 157.13 39.0151C154.675 39.9862 152.05 40.4516 149.411 40.3835C146.938 40.3898 144.474 40.1047 142.068 39.5341Z" fill="white"/>
<path d="M172.711 17.2992H163.794V9.37158H191.733V17.2992H182.863V39.6851H172.711V17.2992Z" fill="white"/>
<path d="M200.989 38.345C198.455 37.0388 196.329 35.0588 194.844 32.6224C193.36 30.1859 192.575 27.3871 192.575 24.5331C192.575 21.6791 193.36 18.8803 194.844 16.4438C196.329 14.0073 198.455 12.0273 200.989 10.7211C203.722 9.38023 206.726 8.68311 209.769 8.68311C212.813 8.68311 215.816 9.38023 218.55 10.7211C221.084 12.0273 223.21 14.0073 224.694 16.4438C226.179 18.8803 226.964 21.6791 226.964 24.5331C226.964 27.3871 226.179 30.1859 224.694 32.6224C223.21 35.0588 221.084 37.0388 218.55 38.345C215.816 39.6859 212.813 40.383 209.769 40.383C206.726 40.383 203.722 39.6859 200.989 38.345ZM213.243 31.1913C214.285 30.5508 215.133 29.637 215.694 28.5488C216.289 27.2974 216.598 25.9287 216.598 24.5425C216.598 23.1563 216.289 21.7877 215.694 20.5363C215.133 19.448 214.285 18.5342 213.243 17.8937C212.201 17.2824 211.015 16.9601 209.807 16.9601C208.599 16.9601 207.413 17.2824 206.371 17.8937C205.329 18.5313 204.484 19.4461 203.93 20.5363C203.328 21.7858 203.015 23.1552 203.015 24.5425C203.015 25.9298 203.328 27.2992 203.93 28.5488C204.475 29.6378 205.317 30.5505 206.357 31.1817C207.398 31.8129 208.595 32.1368 209.812 32.1162C211.019 32.1307 212.206 31.8106 213.243 31.1913Z" fill="white"/>
<path d="M243.585 32.069H240.814V39.6851H230.605V9.37156H245.187C247.693 9.31527 250.182 9.78797 252.493 10.7589C253.9 11.4085 255.157 12.3435 256.185 13.5047C257.213 14.666 257.989 16.0282 258.464 17.5052C258.939 18.9822 259.102 20.5419 258.944 22.0854C258.786 23.629 258.309 25.1228 257.545 26.4725C256.52 28.1259 255.054 29.4596 253.313 30.323L259.666 39.6757H248.732L243.585 32.069ZM247.648 18.1863C246.764 17.496 245.655 17.1596 244.537 17.2425H240.814V24.3396H244.537C245.655 24.4225 246.764 24.0861 247.648 23.3958C248.314 22.6869 248.685 21.7502 248.685 20.7769C248.685 19.8036 248.314 18.8669 247.648 18.158V18.1863Z" fill="white"/>
<path d="M288 31.9746V39.6851H262.823V9.37158H287.434V17.0821H272.862V20.6306H285.662V27.992H272.862V31.9746H288Z" fill="white"/>
<path fill-rule="evenodd" clip-rule="evenodd" d="M57.4605 21.6216L45.9797 10.1266H52.3893L60.7596 18.5166C61.6373 19.3931 62.3101 20.4535 62.7296 21.6216H57.4605ZM32.9531 40.2986L35.9694 43.3186C36.7054 44.0488 37.6997 44.4585 38.7359 44.4585C39.7721 44.4585 40.7663 44.0488 41.5024 43.3186L48.8169 35.995H52.3234V34.5511H50.2497L57.5265 27.2652C58.0646 26.7244 58.434 26.0385 58.5896 25.2911C58.7453 24.5438 58.6805 23.7672 58.4031 23.0561H63.1161C63.3506 24.3904 63.2597 25.7617 62.8511 27.0532C62.4424 28.3448 61.7281 29.5183 60.769 30.474L44.7449 46.5179C43.1562 48.0942 41.0102 48.9785 38.7736 48.9785C36.537 48.9785 34.3909 48.0942 32.8022 46.5179L26.5811 40.2891L32.9531 40.2986ZM20.0678 27.4162L31.5486 38.9112H25.139L16.7593 30.5212C15.884 29.6427 15.2116 28.5829 14.7893 27.4162H20.0678ZM27.2409 14.4867L20.0113 21.7537C19.4747 22.2956 19.1071 22.982 18.9531 23.7293C18.7992 24.4766 18.8655 25.2526 19.1441 25.9629H14.4311C14.2037 24.6286 14.2981 23.2593 14.7063 21.9689C15.1146 20.6786 15.8249 19.5047 16.7782 18.5449L20.8596 14.4679L27.2409 14.4867ZM44.7355 2.51986L50.9472 8.73925H44.5187L41.5024 5.72865C40.7729 5.01354 39.7936 4.61149 38.7727 4.60796C37.7518 4.60444 36.7697 4.99972 36.0353 5.70977L28.7208 13.0428H22.3112L32.8305 2.51043C34.4126 0.940557 36.5479 0.0566663 38.7753 0.0496032C41.0027 0.0425401 43.1435 0.912878 44.7355 2.47268V2.51986Z" fill="white"/>
<path d="M37.3738 23.0654H9.6333V25.9345H37.3738V23.0654Z" fill="white"/>
<path fill-rule="evenodd" clip-rule="evenodd" d="M39.9377 19.0073L44.2453 23.3203C44.3995 23.4746 44.5218 23.6578 44.6053 23.8594C44.6887 24.061 44.7317 24.2771 44.7317 24.4953C44.7317 24.7135 44.6887 24.9296 44.6053 25.1313C44.5218 25.3329 44.3995 25.516 44.2453 25.6703L39.9377 29.9833C39.7836 30.1377 39.6007 30.2601 39.3993 30.3437C39.1979 30.4272 38.9821 30.4702 38.7641 30.4702C38.5462 30.4702 38.3303 30.4272 38.129 30.3437C37.9276 30.2601 37.7447 30.1377 37.5906 29.9833L33.283 25.6703C33.1288 25.516 33.0065 25.3329 32.923 25.1313C32.8396 24.9296 32.7966 24.7135 32.7966 24.4953C32.7966 24.2771 32.8396 24.061 32.923 23.8594C33.0065 23.6578 33.1288 23.4746 33.283 23.3203L37.5906 19.0073C37.7447 18.853 37.9276 18.7305 38.129 18.6469C38.3303 18.5634 38.5462 18.5204 38.7641 18.5204C38.9821 18.5204 39.1979 18.5634 39.3993 18.6469C39.6007 18.7305 39.7836 18.853 39.9377 19.0073Z" fill="white"/>
<path fill-rule="evenodd" clip-rule="evenodd" d="M8.8698 31.9368L13.1869 36.2498C13.496 36.5625 13.6694 36.9848 13.6694 37.4248C13.6694 37.8648 13.496 38.287 13.1869 38.5997L8.8698 42.9127C8.71573 43.0671 8.53279 43.1896 8.33143 43.2731C8.13007 43.3567 7.91424 43.3997 7.69627 43.3997C7.4783 43.3997 7.26247 43.3567 7.06111 43.2731C6.85975 43.1896 6.67681 43.0671 6.52274 42.9127L2.21509 38.5997C2.0609 38.4455 1.93859 38.2623 1.85513 38.0607C1.77168 37.8591 1.72873 37.643 1.72873 37.4248C1.72873 37.2065 1.77168 36.9904 1.85513 36.7888C1.93859 36.5872 2.0609 36.404 2.21509 36.2498L6.52274 31.9368C6.67681 31.7824 6.85975 31.66 7.06111 31.5764C7.26247 31.4928 7.4783 31.4498 7.69627 31.4498C7.91424 31.4498 8.13007 31.4928 8.33143 31.5764C8.53279 31.66 8.71573 31.7824 8.8698 31.9368Z" fill="white"/>
<path fill-rule="evenodd" clip-rule="evenodd" d="M16.5048 13.005H35.7337V10.1738H16.5048L12.4517 6.12503C12.2976 5.97065 12.1147 5.84818 11.9133 5.76463C11.7119 5.68107 11.4961 5.63806 11.2781 5.63806C11.0602 5.63806 10.8443 5.68107 10.643 5.76463C10.4416 5.84818 10.2587 5.97065 10.1046 6.12503L5.78753 10.4286C5.47842 10.7413 5.30504 11.1636 5.30504 11.6036C5.30504 12.0435 5.47842 12.4658 5.78753 12.7785L10.1046 17.0915C10.2627 17.2451 10.4498 17.3656 10.655 17.446C10.8601 17.5265 11.0792 17.5652 11.2994 17.5599C11.5197 17.5546 11.7366 17.5055 11.9377 17.4153C12.1388 17.3252 12.3199 17.1959 12.4705 17.0349L16.5048 13.005Z" fill="white"/>
<path d="M33.8674 35.995H16.5896V38.864H33.8674V35.995Z" fill="white"/>
<path d="M6.10801 23.0654H0V25.9345H6.10801V23.0654Z" fill="white"/>
<path d="M58.224 10.136H42.2565V13.005H58.224V10.136Z" fill="white"/>
<path d="M50.9849 35.995H43.0482V38.864H50.9849V35.995Z" fill="white"/>
<path d="M69.8179 23.0654H60.9292V25.9345H69.8179V23.0654Z" fill="white"/>
<path fill-rule="evenodd" clip-rule="evenodd" d="M55.1983 0.830509L56.9986 2.64253C57.1186 2.77029 57.1854 2.93905 57.1854 3.11441C57.1854 3.28976 57.1186 3.45852 56.9986 3.58629L55.1983 5.3983C55.0696 5.51635 54.9015 5.58184 54.727 5.58184C54.5525 5.58184 54.3843 5.51635 54.2557 5.3983L52.4459 3.58629C52.33 3.45651 52.2659 3.28851 52.2659 3.11441C52.2659 2.9403 52.33 2.7723 52.4459 2.64253L54.2557 0.830509C54.3843 0.712459 54.5525 0.646973 54.727 0.646973C54.9015 0.646973 55.0696 0.712459 55.1983 0.830509Z" fill="white"/>
<path fill-rule="evenodd" clip-rule="evenodd" d="M49.1185 26.0666L50.9283 27.8786C51.0462 28.0074 51.1116 28.1758 51.1116 28.3505C51.1116 28.5252 51.0462 28.6936 50.9283 28.8224L49.1185 30.625C48.9909 30.7451 48.8224 30.8119 48.6472 30.8119C48.4721 30.8119 48.3036 30.7451 48.176 30.625L46.3662 28.8224C46.2483 28.6936 46.1829 28.5252 46.1829 28.3505C46.1829 28.1758 46.2483 28.0074 46.3662 27.8786L48.176 26.0666C48.3056 25.9505 48.4734 25.8864 48.6472 25.8864C48.8211 25.8864 48.9889 25.9505 49.1185 26.0666Z" fill="white"/>
<path fill-rule="evenodd" clip-rule="evenodd" d="M25.554 43.1487L26.6285 44.2246C26.6693 44.2626 26.7019 44.3086 26.7242 44.3597C26.7464 44.4109 26.7579 44.4661 26.7579 44.5219C26.7579 44.5777 26.7464 44.6329 26.7242 44.6841C26.7019 44.7352 26.6693 44.7812 26.6285 44.8192L25.554 45.8951C25.516 45.9359 25.4701 45.9686 25.419 45.9908C25.3679 46.0131 25.3128 46.0246 25.257 46.0246C25.2013 46.0246 25.1462 46.0131 25.0951 45.9908C25.044 45.9686 24.9981 45.9359 24.9601 45.8951L23.8761 44.8192C23.7984 44.7398 23.7549 44.6331 23.7549 44.5219C23.7549 44.4107 23.7984 44.304 23.8761 44.2246L24.9601 43.1487C24.9981 43.1079 25.044 43.0752 25.0951 43.0529C25.1462 43.0307 25.2013 43.0192 25.257 43.0192C25.3128 43.0192 25.3679 43.0307 25.419 43.0529C25.4701 43.0752 25.516 43.1079 25.554 43.1487Z" fill="white"/>
<path fill-rule="evenodd" clip-rule="evenodd" d="M58.8838 41.6764L60.2883 43.0826C60.3885 43.1865 60.4445 43.3252 60.4445 43.4696C60.4445 43.614 60.3885 43.7527 60.2883 43.8565L58.8838 45.2627C58.7801 45.363 58.6416 45.4191 58.4974 45.4191C58.3531 45.4191 58.2146 45.363 58.1109 45.2627L56.7064 43.8565C56.6062 43.7527 56.5502 43.614 56.5502 43.4696C56.5502 43.3252 56.6062 43.1865 56.7064 43.0826L58.1109 41.6764C58.2146 41.5761 58.3531 41.52 58.4974 41.52C58.6416 41.52 58.7801 41.5761 58.8838 41.6764Z" fill="white"/>
<path fill-rule="evenodd" clip-rule="evenodd" d="M23.2255 2.71805L24.498 3.99211C24.589 4.08553 24.6399 4.21085 24.6399 4.34132C24.6399 4.47179 24.589 4.59709 24.498 4.6905L23.2255 5.96458C23.1806 6.01199 23.1265 6.04974 23.0665 6.07554C23.0066 6.10134 22.942 6.11464 22.8767 6.11464C22.8115 6.11464 22.7469 6.10134 22.6869 6.07554C22.627 6.04974 22.5729 6.01199 22.528 5.96458L21.2461 4.6905C21.1551 4.59709 21.1042 4.47179 21.1042 4.34132C21.1042 4.21085 21.1551 4.08553 21.2461 3.99211L22.528 2.71805C22.5729 2.67064 22.627 2.63289 22.6869 2.60709C22.7469 2.58129 22.8115 2.56799 22.8767 2.56799C22.942 2.56799 23.0066 2.58129 23.0665 2.60709C23.1265 2.63289 23.1806 2.67064 23.2255 2.71805Z" fill="white"/>
</g>
<defs>
<clipPath id="clip0_46_102107">
<rect width="288" height="49" fill="white"/>
</clipPath>
</defs>
</svg>
