<svg width="28" height="27" viewBox="0 0 28 27" fill="none" xmlns="http://www.w3.org/2000/svg">
<g id="Group">
<g id="Chapa">
<g id="Clip path group">
<mask id="mask0_34_28833" style="mask-type:luminance" maskUnits="userSpaceOnUse" x="0" y="0" width="27" height="27">
<g id="clippath">
<path id="Vector" d="M13.8674 26.5251C21.1716 26.4523 27.0328 20.5617 26.9588 13.3682C26.8849 6.17458 20.9038 0.402072 13.5997 0.474894C6.29555 0.547716 0.434331 6.43829 0.508273 13.6319C0.582214 20.8254 6.56332 26.5979 13.8674 26.5251Z" fill="white"/>
</g>
</mask>
<g mask="url(#mask0_34_28833)">
<g id="Group_2">
<path id="Vector_2" d="M30.1616 0.130859H-1.83838V9.17084H30.1616V0.130859Z" fill="url(#paint0_linear_34_28833)"/>
<path id="Vector_3" d="M30.1616 9.11047H-1.83838V18.1504H30.1616V9.11047Z" fill="#0039A6"/>
<path id="Vector_4" d="M30.1616 18.0901H-1.83838V27.1301H30.1616V18.0901Z" fill="url(#paint1_linear_34_28833)"/>
</g>
</g>
</g>
<g id="Group_3" style="mix-blend-mode:overlay" opacity="0.6">
<path id="Vector_5" opacity="0.03" d="M1.62045 17.9466C1.65308 9.67875 8.39738 3.06553 16.7661 3.00674C18.8592 2.99341 20.9277 3.40649 22.7423 4.16446C20.3993 1.89447 17.1377 0.511005 13.5818 0.530601C6.39813 0.574496 0.610477 6.28395 0.582621 13.3361C0.575458 15.1389 0.94793 16.8532 1.62204 18.413C1.61806 18.2712 1.62045 18.0901 1.62045 17.9466Z" fill="#080808"/>
<path id="Vector_6" opacity="0.06" d="M1.61969 17.7851C1.68574 9.57211 8.32339 3.09135 16.6101 2.97299C18.6778 2.94634 20.7957 3.34767 22.5896 4.0978C20.2736 1.86857 17.0088 0.52978 13.4958 0.568187C6.37349 0.656761 0.668607 6.29332 0.613692 13.2632C0.599366 15.0448 0.960696 16.7379 1.61571 18.2852C1.61173 18.1449 1.61889 17.927 1.61969 17.7851Z" fill="#101010"/>
<path id="Vector_7" opacity="0.1" d="M1.6181 17.6237C1.71679 9.46474 8.24858 3.11802 16.4541 2.94009C18.4964 2.90011 20.6635 3.28968 22.4376 4.03119C20.1486 1.84272 16.8815 0.548605 13.4107 0.605825C6.34802 0.739077 0.727506 6.30274 0.644735 13.1903C0.623246 14.9516 0.972638 16.6235 1.60855 18.1567C1.60457 18.018 1.61651 17.7632 1.6173 17.6237H1.6181Z" fill="#191919"/>
<path id="Vector_8" opacity="0.13" d="M1.61653 17.4622C1.74864 9.35738 8.17379 3.14391 16.2974 2.90719C18.3141 2.85389 20.5306 3.2317 22.2848 3.96459C20.0221 1.81766 16.7534 0.567445 13.3247 0.643477C6.32257 0.821408 0.785627 6.31139 0.675796 13.1174C0.64794 14.8576 0.984597 16.5083 1.6022 18.0289C1.59822 17.8918 1.61494 17.6002 1.61653 17.4622Z" fill="#212121"/>
<path id="Vector_9" opacity="0.16" d="M1.61568 17.3007C1.78043 9.25073 8.09893 3.17052 16.1421 2.87423C18.1334 2.80761 20.4001 3.17366 22.1327 3.89792C19.8971 1.79175 16.6252 0.57916 13.2395 0.681059C6.29705 0.889559 0.844472 6.32076 0.706785 13.0445C0.671766 14.7634 0.997282 16.3938 1.59578 17.9011C1.5918 17.7655 1.61329 17.4379 1.61568 17.3007Z" fill="#292929"/>
<path id="Vector_10" opacity="0.19" d="M1.6141 17.1393C1.81228 9.14335 8.02333 3.17993 15.9853 2.84053C17.9504 2.75666 20.2672 3.11487 21.9799 3.8313C19.7713 1.76589 16.4971 0.596406 13.1536 0.718685C6.2716 0.969512 0.902585 6.33016 0.738633 12.9716C0.696452 14.6702 1.01003 16.2794 1.58943 17.7734C1.58545 17.6393 1.61172 17.2749 1.6141 17.1393Z" fill="#313131"/>
<path id="Vector_11" opacity="0.23" d="M1.6134 16.9778C1.8259 9.03602 7.94941 3.2035 15.8302 2.80766C17.7698 2.71046 20.1359 3.0577 21.8288 3.76472C19.6465 1.74007 16.3698 0.614487 13.0685 0.756361C6.24622 1.04952 0.961569 6.33884 0.769762 12.8988C0.720417 14.5762 1.02206 16.1642 1.58315 17.6449C1.57917 17.5124 1.60942 17.1111 1.6134 16.9778Z" fill="#3A3A3A"/>
<path id="Vector_12" opacity="0.26" d="M1.61179 16.8163C1.85533 8.9286 7.87458 3.22776 15.6734 2.7747C17.5875 2.6634 20.003 2.99967 21.6752 3.69806C19.5199 1.71496 16.2409 0.632482 12.9818 0.793952C6.22074 1.13022 1.01966 6.34821 0.800792 12.8258C0.744284 14.4829 1.03399 16.0497 1.57678 17.5171C1.5728 17.3862 1.60782 16.948 1.61179 16.8163Z" fill="#424242"/>
<path id="Vector_13" opacity="0.29" d="M1.61021 16.6548C1.88479 8.82119 7.79899 3.25203 15.5174 2.74176C17.4061 2.61713 19.8709 2.94163 21.5232 3.63219C19.395 1.68985 16.1128 0.650482 12.8966 0.832332C6.19528 1.21014 1.07856 6.35759 0.83184 12.7529C0.768169 14.3888 1.04673 15.9345 1.57042 17.3893C1.56644 17.26 1.60623 16.785 1.61101 16.6548H1.61021Z" fill="#4A4A4A"/>
<path id="Vector_14" opacity="0.32" d="M1.60941 16.4934C1.91582 8.71459 7.72496 3.27634 15.3614 2.70884C17.2238 2.5701 19.7396 2.88364 21.3703 3.56558C19.2684 1.66399 15.9838 0.668519 12.8106 0.869964C6.16901 1.29088 1.13745 6.36622 0.862873 12.68C0.792835 14.2947 1.05866 15.8201 1.56325 17.2615C1.55927 17.1338 1.60384 16.6219 1.60941 16.4934Z" fill="#525252"/>
<path id="Vector_15" opacity="0.35" d="M1.60782 16.3319C1.94607 8.60724 7.64935 3.30146 15.2054 2.67517C17.0423 2.52311 19.6075 2.82489 21.2183 3.4982C19.1435 1.63738 15.8565 0.685799 12.7255 0.90684C6.14354 1.37165 1.19555 6.37566 0.89391 12.6072C0.81671 14.2015 1.0706 15.7049 1.55688 17.1338C1.5529 17.0076 1.60224 16.4597 1.60782 16.3327V16.3319Z" fill="#5A5A5A"/>
<path id="Vector_16" opacity="0.39" d="M1.60694 16.1705C1.97623 8.49984 7.57446 3.32574 15.0494 2.64223C16.8608 2.47684 19.4753 2.76686 21.0662 3.43156C19.0184 1.61227 15.7283 0.703807 12.6402 0.944445C6.118 1.45315 1.25437 6.38505 0.924871 12.5335C0.840507 14.1066 1.08325 15.5896 1.55043 17.0045C1.54725 16.8798 1.60057 16.2951 1.60694 16.1697V16.1705Z" fill="#636363"/>
<path id="Vector_17" opacity="0.42" d="M1.6054 16.009C2.00732 8.39243 7.49969 3.3508 14.8934 2.60929C16.6794 2.42979 19.3432 2.70884 20.9135 3.36569C18.8927 1.58717 15.6002 0.723384 12.5543 0.982834C6.09258 1.53465 1.31251 6.39443 0.955958 12.4605C0.864432 14.0125 1.09524 15.4744 1.54411 16.8767C1.54093 16.7536 1.59903 16.132 1.6054 16.0082V16.009Z" fill="#6B6B6B"/>
<path id="Vector_18" opacity="0.45" d="M1.60465 15.8475C2.03761 8.28509 7.42493 3.37671 14.7375 2.57641C16.4972 2.38359 19.2119 2.65166 20.7615 3.29911C18.767 1.56134 15.4721 0.741453 12.4692 1.0205C6.06715 1.61621 1.37145 6.4031 0.987042 12.3877C0.888353 13.9193 1.10722 15.36 1.537 16.7489C1.53381 16.6274 1.59669 15.969 1.60385 15.8475H1.60465Z" fill="#737373"/>
<path id="Vector_19" opacity="0.48" d="M1.60299 15.6861C2.06938 8.17849 7.35005 3.4018 14.5814 2.54271C16.3157 2.33656 19.0797 2.59288 20.6094 3.2317C18.642 1.5347 15.3447 0.759486 12.384 1.05813C6.04162 1.69774 1.42949 6.41251 1.01802 12.3148C0.912164 13.8252 1.11909 15.2456 1.53056 16.6212C1.52738 16.5013 1.59503 15.806 1.60299 15.6861Z" fill="#7B7B7B"/>
<path id="Vector_20" opacity="0.52" d="M1.60137 15.5246C2.10039 8.07106 7.27441 3.42762 14.4254 2.50975C16.1342 2.29027 18.9476 2.53483 20.4566 3.16582C18.5162 1.51036 15.2157 0.779039 12.298 1.09649C6.01612 1.78 1.48835 6.42187 1.04903 12.2418C0.936807 13.7319 1.1318 15.1303 1.52417 16.4926C1.52098 16.3742 1.59341 15.6421 1.60137 15.5238V15.5246Z" fill="#848484"/>
<path id="Vector_21" opacity="0.55" d="M1.60058 15.3631C2.13223 7.9637 7.1996 3.45429 14.2686 2.47685C15.9519 2.24405 18.8147 2.47685 20.3038 3.09922C18.3897 1.48452 15.0876 0.797092 12.2121 1.13414C5.99066 1.86154 1.54646 6.43052 1.08007 12.169C0.960692 13.6379 1.14374 15.0159 1.51781 16.3649C1.51462 16.2481 1.59183 15.4791 1.60058 15.3623V15.3631Z" fill="#8C8C8C"/>
<path id="Vector_22" opacity="0.58" d="M1.59897 15.2017C2.16405 7.85634 7.12477 3.48019 14.1126 2.44395C15.7696 2.19783 18.6834 2.41887 20.1518 3.03262C18.2647 1.45867 14.9594 0.815928 12.1269 1.17179C5.96518 1.94465 1.60534 6.43995 1.11109 12.0961C0.98455 13.5438 1.15566 14.9007 1.51063 16.2371C1.50744 16.1219 1.58942 15.3169 1.59817 15.2017H1.59897Z" fill="#949494"/>
<path id="Vector_23" opacity="0.61" d="M1.5982 15.0402C2.19591 7.74974 7.04999 3.50684 13.9566 2.41104C15.5882 2.15237 18.5513 2.36087 19.999 2.96678C18.139 1.43359 14.8313 0.83631 12.0402 1.2102C5.93973 2.02696 1.66346 6.44936 1.14296 12.0232C1.00925 13.4506 1.16843 14.7862 1.50508 16.1093C1.5019 15.9957 1.58865 15.1539 1.5982 15.0402Z" fill="#9C9C9C"/>
<path id="Vector_24" opacity="0.65" d="M1.59661 14.8787C2.22854 7.64233 6.97518 3.53347 13.8007 2.37731C15.4067 2.10532 18.4192 2.30284 19.847 2.89934C18.0133 1.4077 14.7032 0.854315 11.955 1.24702C5.91427 2.11002 1.72236 6.45796 1.174 11.9503C1.03313 13.3565 1.18116 14.671 1.49872 15.9816C1.49553 15.8695 1.58706 14.9908 1.59741 14.8787H1.59661Z" fill="#A5A5A5"/>
<path id="Vector_25" opacity="0.68" d="M1.59506 14.7172C2.26122 7.53492 6.90041 3.56087 13.6447 2.34436C15.2253 2.05904 18.2871 2.24481 19.6942 2.83269C17.8875 1.38181 14.5751 0.873883 11.8691 1.28461C5.88884 2.19386 1.7805 6.46733 1.20508 11.8774C1.05705 13.2632 1.19314 14.5565 1.49239 15.853C1.48921 15.7425 1.58551 14.8269 1.59586 14.7164L1.59506 14.7172Z" fill="#ADADAD"/>
<path id="Vector_26" opacity="0.71" d="M1.59421 14.5558C2.29379 7.42836 6.82633 3.58835 13.4887 2.31148C15.043 2.01363 18.1557 2.18685 19.5421 2.76611C17.7625 1.35599 14.4469 0.89274 11.7839 1.32228C5.86331 2.27699 1.83934 6.47678 1.23606 11.8045C1.08166 13.1692 1.20502 14.4413 1.48517 15.7253C1.48199 15.6163 1.58306 14.6639 1.59421 14.5558Z" fill="#B5B5B5"/>
<path id="Vector_27" opacity="0.74" d="M1.59262 14.3943C2.32722 7.32098 6.75153 3.61657 13.3327 2.27856C14.8616 1.96738 18.0236 2.12885 19.3901 2.70027C17.6368 1.3309 14.3196 0.91312 11.6987 1.36069C5.83785 2.36165 1.89745 6.48619 1.26711 11.7316C1.10554 13.0751 1.21776 14.3269 1.47881 15.5975C1.47563 15.4901 1.58148 14.5009 1.59262 14.3943Z" fill="#BDBDBD"/>
<path id="Vector_28" opacity="0.77" d="M1.59182 14.2328C2.36064 7.21436 6.67671 3.64398 13.1767 2.24562C14.6801 1.9219 17.8915 2.07083 19.2373 2.63362C17.511 1.30502 14.1914 0.932697 11.6128 1.3983C5.81317 2.4455 1.95633 6.4948 1.29814 11.6587C1.12941 12.9818 1.22969 14.2124 1.47244 15.4697C1.46925 15.3639 1.57988 14.3386 1.59182 14.2328Z" fill="#C5C5C5"/>
<path id="Vector_29" opacity="0.81" d="M1.59023 14.0713C2.39407 7.10695 6.60269 3.67297 13.0207 2.2119C14.4986 1.87563 17.7594 2.01202 19.0853 2.56619C17.3861 1.27913 14.0633 0.951489 11.5276 1.43512C5.78771 2.53013 2.01523 6.50418 1.32918 11.5858C1.1533 12.8877 1.24164 14.0972 1.46608 15.3411C1.46289 15.2369 1.5783 14.1748 1.59023 14.0705V14.0713Z" fill="#CECECE"/>
<path id="Vector_30" opacity="0.84" d="M1.58866 13.9099C2.42831 7.00038 6.52869 3.70121 12.8647 2.179C14.3172 1.8302 17.6273 1.95483 18.9333 2.50038C17.2612 1.25408 13.936 0.972681 11.4425 1.47355C5.76305 2.6156 2.07335 6.51362 1.36024 11.5129C1.17719 12.7937 1.25359 13.9828 1.45893 15.2134C1.45574 15.1107 1.57672 14.0118 1.58866 13.9099Z" fill="#D6D6D6"/>
<path id="Vector_31" opacity="0.87" d="M1.58788 13.7484C2.46335 6.89376 6.45469 3.73099 12.7087 2.14607C14.1357 1.78472 17.496 1.89681 18.7805 2.43374C17.1346 1.2282 13.8078 0.992265 11.3565 1.51116C5.7384 2.70024 2.13226 6.52222 1.3913 11.44C1.20108 12.7004 1.26634 13.8675 1.45258 15.0856C1.44939 14.9845 1.57514 13.8487 1.58788 13.7484Z" fill="#DEDEDE"/>
<path id="Vector_32" opacity="0.9" d="M1.58633 13.5869C2.50955 6.78795 6.3839 3.77176 12.552 2.11316C13.9543 1.74162 17.3631 1.83882 18.6277 2.36712C17.0089 1.20234 13.6797 1.01265 11.2706 1.54958C5.71377 2.78647 2.19041 6.53242 1.42238 11.3679C1.2258 12.6072 1.27833 13.7539 1.44626 14.9587C1.44307 14.8599 1.5736 13.6865 1.58633 13.5877V13.5869Z" fill="#E6E6E6"/>
<path id="Vector_33" opacity="0.94" d="M1.58549 13.4255C2.54134 6.68135 6.30905 3.7984 12.3959 2.08023C13.7728 1.69537 17.2309 1.78081 18.4757 2.30049C16.8839 1.17725 13.5532 1.03695 11.1854 1.5872C5.69144 2.88131 2.24926 6.54104 1.45417 11.2942C1.25042 12.5131 1.29101 13.6379 1.44064 14.8301C1.43746 14.7329 1.57276 13.5234 1.58629 13.4263L1.58549 13.4255Z" fill="#EFEFEF"/>
<path id="Vector_34" opacity="0.97" d="M1.58392 13.264C2.5732 6.57397 6.23505 3.82427 12.24 2.04654C13.5914 1.64835 17.0988 1.72203 18.3229 2.23387C16.7574 1.1514 13.425 1.05577 11.0995 1.62483C5.66599 2.96362 2.30737 6.55046 1.48443 11.2213C1.27352 12.419 1.30297 13.5235 1.4327 14.7016C1.42951 14.6059 1.56959 13.3596 1.58312 13.264H1.58392Z" fill="#F7F7F7"/>
<path id="Vector_35" d="M1.58309 13.1025C2.605 6.46737 6.1602 3.85093 12.0839 2.01362C13.4099 1.60211 16.9675 1.66403 18.1708 2.16725C16.6324 1.12553 13.2969 1.07458 11.0135 1.66246C5.6397 3.04593 2.36544 6.55908 1.51544 11.1484C1.29737 12.325 1.31488 13.4082 1.4263 14.5738C1.42391 14.4797 1.56797 13.1966 1.58229 13.1025H1.58309Z" fill="white"/>
</g>
<g id="Group_4" style="mix-blend-mode:overlay" opacity="0.2">
<path id="Vector_36" opacity="0.03" d="M24.9493 7.16734C25.9856 15.313 20.1987 22.67 11.9661 23.7776C9.90639 24.0527 7.81721 23.9062 5.93176 23.3865C8.53191 25.328 11.9232 26.2812 15.4219 25.8171C22.4893 24.8726 27.4508 18.5251 26.5666 11.578C26.3405 9.80182 25.7524 8.16046 24.8873 6.7088C24.9096 6.84832 24.931 7.02704 24.9486 7.16813L24.9493 7.16734Z" fill="#080808"/>
<path id="Vector_37" opacity="0.06" d="M24.9716 7.32648C25.9681 15.4227 20.2696 22.6356 12.1245 23.7909C10.0918 24.0763 7.9549 23.9469 6.09094 23.4335C8.66005 25.3382 12.0473 26.2475 15.5014 25.7693C22.5036 24.7888 27.3927 18.5236 26.5459 11.6532C26.3294 9.89667 25.7556 8.27492 24.9104 6.83423C24.9326 6.97218 24.9541 7.18695 24.9708 7.32726L24.9716 7.32648Z" fill="#101010"/>
<path id="Vector_38" opacity="0.1" d="M24.9939 7.48482C25.9505 15.5317 20.3396 22.5995 12.282 23.8035C10.2764 24.099 8.09173 23.9869 6.24927 23.479C8.78654 25.3469 12.1706 26.2122 15.581 25.7208C22.5179 24.7041 27.3338 18.5212 26.5251 11.7285C26.3182 9.99152 25.7587 8.38936 24.9342 6.95886C24.9557 7.09525 24.9772 7.34686 24.9939 7.4856V7.48482Z" fill="#191919"/>
<path id="Vector_39" opacity="0.13" d="M25.0154 7.6439C25.9331 15.6414 20.4089 22.565 12.4397 23.8168C10.4603 24.1217 8.22869 24.0276 6.40771 23.526C8.91315 25.357 12.2941 26.1777 15.6598 25.6737C22.5315 24.6202 27.2741 18.5204 26.5029 11.8053C26.3055 10.0879 25.7604 8.50455 24.9557 7.08502C24.9772 7.21984 24.9987 7.50829 25.0146 7.64468L25.0154 7.6439Z" fill="#212121"/>
<path id="Vector_40" opacity="0.16" d="M25.0377 7.80301C25.9156 15.7503 20.4789 22.5297 12.5981 23.8301C10.6458 24.1452 8.36718 24.0684 6.56689 23.5722C9.04049 25.3656 12.419 26.1502 15.7402 25.6251C22.549 24.5497 27.2168 18.518 26.483 11.8797C26.2952 10.182 25.7643 8.6182 24.9804 7.20886C25.0019 7.34211 25.0234 7.66741 25.0385 7.80223L25.0377 7.80301Z" fill="#292929"/>
<path id="Vector_41" opacity="0.19" d="M25.0599 7.96136C25.898 15.8593 20.5521 22.5109 12.7556 23.8427C10.8312 24.1711 8.50401 24.1092 6.72522 23.6185C9.16698 25.375 12.5423 26.1166 15.819 25.5773C22.5633 24.4674 27.1571 18.5165 26.4607 11.9558C26.2824 10.2784 25.7659 8.73265 25.0018 7.33429C25.0225 7.46597 25.0448 7.82811 25.0591 7.96136H25.0599Z" fill="#313131"/>
<path id="Vector_42" opacity="0.23" d="M25.0823 8.1205C25.8989 15.9675 20.623 22.478 12.9141 23.856C11.0167 24.1954 8.64177 24.1499 6.88367 23.6655C9.2936 25.3853 12.6665 26.0837 15.8986 25.5303C22.5784 24.3867 27.0983 18.5157 26.4401 12.0326C26.2721 10.3748 25.7699 8.84868 25.0258 7.46051C25.0465 7.59063 25.0688 7.9896 25.0823 8.12128V8.1205Z" fill="#3A3A3A"/>
<path id="Vector_43" opacity="0.26" d="M25.1046 8.27882C25.8837 16.0764 20.6938 22.4443 13.0724 23.8685C11.2021 24.2181 8.77946 24.1899 7.04285 23.711C9.42174 25.3939 12.7907 26.0492 15.9782 25.4809C22.5936 24.3028 27.0402 18.5126 26.4194 12.1063C26.261 10.4681 25.7731 8.96154 25.0489 7.58356C25.0696 7.71211 25.0918 8.14792 25.1046 8.27804V8.27882Z" fill="#424242"/>
<path id="Vector_44" opacity="0.29" d="M25.1261 8.43795C25.867 16.1862 20.7638 22.4114 13.2292 23.8811C11.386 24.2409 8.91636 24.2299 7.20044 23.7572C9.54749 25.4033 12.9133 26.0147 16.0562 25.4331C22.6063 24.2205 26.9797 18.511 26.3963 12.1823C26.2475 10.5637 25.7739 9.07599 25.0704 7.70898C25.0911 7.83597 25.1133 8.30862 25.1253 8.43717L25.1261 8.43795Z" fill="#4A4A4A"/>
<path id="Vector_45" opacity="0.32" d="M25.1484 8.59704C25.8519 16.2959 20.8347 22.3784 13.3876 23.8944C11.5714 24.2643 9.05405 24.2706 7.35962 23.8042C9.67484 25.4135 13.0374 25.9817 16.1366 25.386C22.6222 24.1382 26.9216 18.5094 26.3764 12.2591C26.2371 10.6601 25.7779 9.19197 25.0942 7.83594C25.1141 7.96135 25.1364 8.47084 25.1484 8.59783V8.59704Z" fill="#525252"/>
<path id="Vector_46" opacity="0.35" d="M25.1706 8.75536C25.836 16.404 20.9055 22.3439 13.546 23.9069C11.7569 24.2871 9.19174 24.3114 7.5188 23.8497C9.80218 25.4221 13.1624 25.9472 16.2162 25.3366C22.6374 24.0543 26.8635 18.5063 26.3549 12.3328C26.2252 10.7534 25.7803 9.30405 25.1173 7.95898C25.1372 8.08283 25.1595 8.62916 25.1706 8.75458V8.75536Z" fill="#5A5A5A"/>
<path id="Vector_47" opacity="0.39" d="M25.1929 8.9145C25.82 16.5138 20.9763 22.3103 13.7035 23.9203C11.9415 24.3106 9.32937 24.3521 7.67712 23.8967C9.92867 25.4315 13.2857 25.9135 16.2957 25.2896C22.6524 23.972 26.8045 18.5055 26.3342 12.4096C26.214 10.8498 25.7834 9.42008 25.1404 8.08521C25.1602 8.20748 25.1825 8.79066 25.1929 8.9145Z" fill="#636363"/>
<path id="Vector_48" opacity="0.42" d="M25.2143 9.07363C25.8025 16.6235 21.0463 22.2766 13.8611 23.9336C12.126 24.3341 9.46621 24.3929 7.83545 23.9438C10.0552 25.4417 13.409 25.8799 16.3745 25.2418C22.6659 23.8889 26.7448 18.504 26.3126 12.4857C26.202 10.9454 25.7866 9.53531 25.1634 8.21063C25.1825 8.33134 25.2056 8.95057 25.2151 9.07363H25.2143Z" fill="#6B6B6B"/>
<path id="Vector_49" opacity="0.45" d="M25.2367 9.23196C25.7866 16.7325 21.1164 22.2421 14.0195 23.9461C12.3116 24.3561 9.60396 24.4329 7.9939 23.9892C10.1826 25.4503 13.5324 25.8446 16.4541 25.1932C22.6811 23.8043 26.6868 18.5016 26.2912 12.5601C26.1901 11.0395 25.789 9.64818 25.1857 8.33447C25.2048 8.45362 25.2279 9.10969 25.2367 9.23118V9.23196Z" fill="#737373"/>
<path id="Vector_50" opacity="0.48" d="M25.2589 9.39105C25.7698 16.8422 21.1872 22.2075 14.177 23.9594C12.4961 24.3795 9.7408 24.4736 8.15222 24.0362C10.3091 25.4605 13.6565 25.8108 16.5329 25.1461C22.6954 23.7219 26.627 18.5008 26.2697 12.6369C26.1781 11.1359 25.7913 9.76415 25.2088 8.46063C25.2279 8.57821 25.2501 9.27112 25.2589 9.39105Z" fill="#7B7B7B"/>
<path id="Vector_51" opacity="0.52" d="M25.2812 9.54938C25.7531 16.9511 21.258 22.1723 14.3354 23.972C12.6816 24.4023 9.87929 24.5144 8.3114 24.0825C10.4364 25.4699 13.7807 25.7763 16.6132 25.0975C22.7105 23.6373 26.5689 18.4984 26.249 12.7122C26.167 11.2307 25.7945 9.87781 25.2318 8.58527C25.2501 8.70127 25.2732 9.43102 25.2812 9.5486V9.54938Z" fill="#848484"/>
<path id="Vector_52" opacity="0.55" d="M25.3035 9.70853C25.7356 17.0617 21.3288 22.137 14.4938 23.9853C12.867 24.425 10.017 24.5552 8.47058 24.1287C10.5637 25.4793 13.9049 25.7419 16.6928 25.0498C22.7256 23.5526 26.5108 18.4969 26.2283 12.7882C26.1559 11.3271 25.7977 9.99306 25.2557 8.71149C25.274 8.82593 25.2971 9.59252 25.3043 9.70853H25.3035Z" fill="#8C8C8C"/>
<path id="Vector_53" opacity="0.58" d="M25.325 9.86766C25.7182 17.1714 21.3981 22.1025 14.6515 23.9986C13.0509 24.4486 10.1539 24.5959 8.62903 24.1758C10.6904 25.4895 14.0283 25.7074 16.7717 25.0027C22.7392 23.4696 26.4512 18.4961 26.2069 12.8643C26.1448 11.4228 25.8002 10.1083 25.2781 8.83691C25.2964 8.94979 25.3195 9.75322 25.3258 9.86766H25.325Z" fill="#949494"/>
<path id="Vector_54" opacity="0.61" d="M25.3473 10.026C25.7006 17.2804 21.4689 22.0665 14.809 24.0112C13.2355 24.4705 10.2916 24.6359 8.78735 24.2212C10.8169 25.4973 14.1516 25.6713 16.8512 24.9534C22.7535 23.3833 26.393 18.493 26.1853 12.9387C26.1328 11.5168 25.8025 10.2212 25.3003 8.96075C25.3178 9.07206 25.3417 9.91233 25.3465 10.0252L25.3473 10.026Z" fill="#9C9C9C"/>
<path id="Vector_55" opacity="0.65" d="M25.3695 10.1851C25.6823 17.3901 21.539 22.0304 14.9674 24.0245C13.421 24.494 10.4293 24.6767 8.94653 24.2683C10.945 25.5075 14.2758 25.6377 16.9308 24.9063C22.7686 23.2995 26.3342 18.4922 26.1646 13.0156C26.1217 11.6133 25.8065 10.3372 25.3242 9.08698C25.3417 9.19671 25.3648 10.0738 25.3695 10.1851Z" fill="#A5A5A5"/>
<path id="Vector_56" opacity="0.68" d="M25.3919 10.3434C25.6641 17.499 21.6091 21.9943 15.1258 24.037C13.6065 24.5159 10.567 24.7174 9.10498 24.3145C11.0716 25.5169 14.3992 25.6023 17.0105 24.8585C22.783 23.214 26.2753 18.4906 26.1432 13.0907C26.1098 11.7081 25.8089 10.4508 25.3465 9.21155C25.364 9.31972 25.3871 10.2337 25.3911 10.3434H25.3919Z" fill="#ADADAD"/>
<path id="Vector_57" opacity="0.71" d="M25.4134 10.5025C25.645 17.6088 21.6783 21.9583 15.2826 24.0503C13.7903 24.5387 10.7031 24.7581 9.26257 24.3607C11.1974 25.5263 14.5218 25.5671 17.0885 24.8099C22.7957 23.1278 26.2156 18.4882 26.1209 13.166C26.0971 11.8029 25.8105 10.5652 25.3688 9.33618C25.3863 9.44278 25.4094 10.3936 25.4126 10.5017L25.4134 10.5025Z" fill="#B5B5B5"/>
<path id="Vector_58" opacity="0.74" d="M25.4357 10.6617C25.6267 17.7185 21.7484 21.9215 15.441 24.0637C13.9758 24.5614 10.8416 24.7989 9.42175 24.4078C11.3247 25.5365 14.6459 25.5318 17.1689 24.7629C22.8101 23.0431 26.1575 18.4875 26.101 13.2428C26.0867 11.8993 25.8145 10.6813 25.3927 9.4624C25.4094 9.56744 25.4333 10.5551 25.4357 10.6617Z" fill="#BDBDBD"/>
<path id="Vector_59" opacity="0.77" d="M25.458 10.82C25.6076 17.8283 21.8184 21.8839 15.5994 24.0762C14.1604 24.5834 10.9793 24.8389 9.58093 24.4541C11.452 25.5459 14.7693 25.4966 17.2485 24.7151C22.8244 22.9569 26.0987 18.4859 26.0795 13.3181C26.0748 11.9942 25.8169 10.7949 25.4158 9.58783C25.4325 9.6913 25.4556 10.7158 25.458 10.8208V10.82Z" fill="#C5C5C5"/>
<path id="Vector_60" opacity="0.81" d="M25.4802 10.9791C25.5884 17.938 21.8884 21.847 15.7569 24.0896C14.345 24.6061 11.1161 24.8797 9.73926 24.5003C11.5785 25.5546 14.8926 25.4605 17.3272 24.6665C22.8379 22.8691 26.0397 18.4836 26.058 13.3934C26.0628 12.0891 25.8192 10.9094 25.438 9.71246C25.4547 9.81436 25.4778 10.8749 25.4794 10.9791H25.4802Z" fill="#CECECE"/>
<path id="Vector_61" opacity="0.84" d="M25.5025 11.1382C25.5685 18.0477 21.9576 21.8101 15.9153 24.1029C14.5305 24.6288 11.2538 24.9212 9.89844 24.5473C11.7067 25.5647 15.0168 25.4252 17.4076 24.6194C22.8522 22.7837 25.9816 18.4828 26.0373 13.4701C26.0516 12.1854 25.8232 11.0254 25.4619 9.83862C25.4778 9.93895 25.5017 11.0363 25.5025 11.139V11.1382Z" fill="#D6D6D6"/>
<path id="Vector_62" opacity="0.87" d="M25.5239 11.2966C25.5478 18.1567 22.026 21.7717 16.0728 24.1154C14.7143 24.65 11.3915 24.9612 10.0568 24.5935C11.8332 25.5741 15.1393 25.3891 17.4863 24.5708C22.8649 22.6959 25.9219 18.4804 26.0158 13.5446C26.0397 12.2795 25.8256 11.1382 25.4841 9.96246C25.5 10.0612 25.5239 11.1954 25.5239 11.2958V11.2966Z" fill="#DEDEDE"/>
<path id="Vector_63" opacity="0.9" d="M25.5463 11.4557C25.516 18.2664 22.0906 21.7224 16.2305 24.1287C14.8974 24.6704 11.5284 25.0019 10.2152 24.6398C11.9598 25.5835 15.2627 25.3531 17.566 24.523C22.8785 22.6081 25.8638 18.4789 25.9951 13.6206C26.0286 12.3759 25.8288 11.2535 25.5081 10.0879C25.524 10.1851 25.5471 11.3561 25.5471 11.4549L25.5463 11.4557Z" fill="#E6E6E6"/>
<path id="Vector_64" opacity="0.94" d="M25.5685 11.614C25.4985 18.3754 22.1605 21.6863 16.3888 24.1413C15.0828 24.6923 11.666 25.0419 10.3735 24.6861C12.0863 25.593 15.3836 25.3131 17.6447 24.4752C22.8872 22.5125 25.8041 18.4773 25.9728 13.6967C26.0166 12.4715 25.8303 11.3679 25.5295 10.2133C25.5446 10.3089 25.5685 11.5168 25.5677 11.614H25.5685Z" fill="#EFEFEF"/>
<path id="Vector_65" opacity="0.97" d="M25.5908 11.7732C25.4818 18.4851 22.2306 21.6518 16.5472 24.1546C15.2682 24.7159 11.8045 25.0827 10.5327 24.7331C12.2136 25.6032 15.5078 25.2794 17.7251 24.4274C22.9031 22.4278 25.746 18.4757 25.9529 13.7727C26.0062 12.5672 25.8343 11.4831 25.5542 10.3387C25.5693 10.4328 25.5932 11.6775 25.5916 11.7732H25.5908Z" fill="#F7F7F7"/>
<path id="Vector_66" d="M25.6123 11.9323C25.4635 18.5949 22.3007 21.6166 16.7048 24.168C15.4529 24.7386 11.9415 25.1242 10.6912 24.7794C12.341 25.6126 15.6312 25.2449 17.804 24.3796C22.9167 22.344 25.6872 18.4742 25.9307 13.848C25.9936 12.662 25.836 11.5976 25.5757 10.4634C25.5909 10.5559 25.6139 11.8374 25.6123 11.9315V11.9323Z" fill="white"/>
</g>
</g>
</g>
<defs>
<linearGradient id="paint0_linear_34_28833" x1="-1.83838" y1="4.65124" x2="30.1616" y2="4.65124" gradientUnits="userSpaceOnUse">
<stop stop-color="white"/>
<stop offset="1" stop-color="#E6E6E6"/>
</linearGradient>
<linearGradient id="paint1_linear_34_28833" x1="-1.83838" y1="22.6105" x2="30.1616" y2="22.6105" gradientUnits="userSpaceOnUse">
<stop stop-color="#CF1400"/>
<stop offset="1" stop-color="#CF1400"/>
</linearGradient>
</defs>
</svg>
