<svg width="31" height="31" viewBox="0 0 31 31" fill="none" xmlns="http://www.w3.org/2000/svg">
<g id="telegram 1" clip-path="url(#clip0_309_38)">
<path id="Vector" d="M15.4998 31.0002C24.0601 31.0002 30.9996 24.0607 30.9996 15.5004C30.9996 6.94011 24.0601 0.000610352 15.4998 0.000610352C6.9395 0.000610352 0 6.94011 0 15.5004C0 24.0607 6.9395 31.0002 15.4998 31.0002Z" fill="#41B4E6"/>
<path id="Vector_2" d="M31 15.5002C31 15.1225 30.9858 14.7483 30.9593 14.3773L24.5353 7.95349L6.46472 15.0616L13.3786 21.9756L13.4693 22.3021L13.5867 22.1837L13.5872 22.1842L13.4693 22.3021L21.1174 29.9502C26.9009 27.7002 31 22.0793 31 15.5002Z" fill="#0091C8"/>
<path id="Vector_3" d="M13.9947 17.7585L20.9994 23.047L24.5353 7.95349L6.46466 15.0616L11.9633 16.8829L21.9986 10.1516L13.9947 17.7585Z" fill="white"/>
<path id="Vector_4" d="M11.9633 16.8828L13.4693 22.302L13.9947 17.7584L21.9985 10.1515L11.9633 16.8828Z" fill="#D2D2D7"/>
<path id="Vector_5" d="M16.2712 19.4772L13.4693 22.3021L13.9947 17.7584L16.2712 19.4772Z" fill="#B9B9BE"/>
</g>
<defs>
<clipPath id="clip0_309_38">
<rect width="31" height="31" fill="white"/>
</clipPath>
</defs>
</svg>
