<svg width="259" height="290" viewBox="0 0 259 290" fill="none" xmlns="http://www.w3.org/2000/svg">
<path d="M224.76 54.01L141.36 8.19998C110.35 -8.83002 71.0298 2.59998 53.9998 33.62L8.18979 117.02C-8.84021 148.03 2.58979 187.35 33.6098 204.38L53.6398 215.38L96.3698 289.84L117.9 250.65C148.77 266.99 187.49 255.49 204.37 224.77L250.18 141.37C267.21 110.36 255.78 71.04 224.76 54.01Z" fill="url(#paint0_linear_75_38311)"/>
<path d="M213.749 63.82L138.989 22.76C111.189 7.48996 75.9494 17.74 60.6794 45.55L19.6194 120.31C4.3494 148.11 14.5994 183.35 42.4094 198.62L60.3694 208.48L98.6794 275.23L117.979 240.1C145.659 254.74 180.369 244.44 195.489 216.9L236.549 142.14C251.819 114.34 241.569 79.1 213.759 63.83L213.749 63.82Z" fill="url(#paint1_linear_75_38311)"/>
<path opacity="0.39" d="M115.466 63.3428C123.816 63.0308 130.404 57.919 130.18 51.9254C129.956 45.9318 123.005 41.3259 114.655 41.638C106.304 41.95 99.7167 47.0617 99.9407 53.0554C100.165 59.049 107.115 63.6548 115.466 63.3428Z" fill="#F0F3F4"/>
<path opacity="0.39" d="M94.5517 62.0768C97.7913 59.4167 98.9714 55.499 97.1875 53.3264C95.4035 51.1539 91.3311 51.5491 88.0915 54.2092C84.8518 56.8694 83.6717 60.787 85.4557 62.9596C87.2396 65.1322 91.312 64.7369 94.5517 62.0768Z" fill="#F0F3F4"/>
<g style="mix-blend-mode:screen" opacity="0.95">
<path d="M211.12 165.43C206.96 167.91 202.43 169.93 197.57 171.42C159.85 183.02 118.41 180.21 81.99 160.21C63.89 150.27 48.71 137 36.73 121.5C35.56 119.97 34.46 118.41 33.46 116.79C44.61 86.59 60.31 59.54 82.54 38.06C90.86 30.02 101.58 25.24 112.49 27.31C151.37 34.71 187.57 54.82 221.06 87.67C229.44 95.88 232.54 108.35 229.04 120.1C224.37 135.79 218.38 150.9 211.11 165.43H211.12Z" fill="url(#paint2_linear_75_38311)"/>
</g>
<path opacity="0.39" d="M145.758 228.394C152.811 228.13 158.375 223.814 158.186 218.753C157.997 213.692 152.126 209.803 145.073 210.067C138.02 210.33 132.455 214.647 132.644 219.708C132.833 224.769 138.704 228.658 145.758 228.394Z" fill="#F0F3F4"/>
<path opacity="0.39" d="M168.195 217.796C170.931 215.549 171.927 212.24 170.42 210.405C168.913 208.57 165.473 208.903 162.737 211.15C160.001 213.396 159.005 216.705 160.512 218.541C162.019 220.376 165.459 220.043 168.195 217.796Z" fill="#F0F3F4"/>
<path d="M190.36 135.79C189.54 144.16 187.08 152.06 183.01 159.48C178.94 166.9 173.58 173.22 166.96 178.4C160.34 183.58 153.24 187.28 145.65 189.49C138.06 191.7 130.09 192.39 121.72 191.57C113.35 190.75 105.46 188.29 98.0302 184.21C90.6002 180.13 84.2902 174.78 79.1102 168.16C73.9302 161.54 70.2302 154.44 68.0202 146.85C65.8102 139.26 65.1202 131.29 65.9402 122.92C66.7602 114.55 69.2102 106.66 73.3002 99.23C77.3902 91.8 82.7302 85.5 89.3502 80.31C95.9702 75.13 103.07 71.43 110.66 69.22C118.25 67.01 126.22 66.32 134.59 67.14C142.95 67.96 150.85 70.41 158.28 74.49C165.71 78.57 172.01 83.92 177.2 90.54C182.38 97.16 186.08 104.26 188.29 111.85C190.5 119.44 191.19 127.42 190.37 135.78L190.36 135.79ZM132.27 164.37L164.57 126.89C165.92 125.3 166.42 123.89 166.05 122.68C165.68 121.47 164.71 120.75 163.13 120.52L99.0402 111.85C97.6102 111.65 96.5202 111.72 95.7802 112.05C95.0402 112.38 94.6902 112.9 94.7302 113.59C94.7802 114.28 95.2102 115.04 96.0302 115.86L107.24 127.51L149.51 124.99C150.68 124.89 151.4 125.13 151.67 125.7C151.84 126.06 151.59 126.32 150.92 126.48L112.9 135.48L104.25 148.9C105.19 149.42 106.35 149.47 107.74 149.07L117.85 146.34L126.02 163.97C127.82 166.87 129.9 167.01 132.26 164.37H132.27Z" fill="white"/>
<defs>
<linearGradient id="paint0_linear_75_38311" x1="20.327" y1="94.8973" x2="216.5" y2="202.655" gradientUnits="userSpaceOnUse">
<stop stop-color="#006DE9"/>
<stop offset="1" stop-color="#3FBCFF"/>
</linearGradient>
<linearGradient id="paint1_linear_75_38311" x1="30.4849" y1="100.477" x2="206.341" y2="197.075" gradientUnits="userSpaceOnUse">
<stop stop-color="#006DE9"/>
<stop offset="1" stop-color="#3FBCFF"/>
</linearGradient>
<linearGradient id="paint2_linear_75_38311" x1="111.133" y1="11.8462" x2="144.413" y2="171.762" gradientUnits="userSpaceOnUse">
<stop stop-color="white"/>
<stop offset="1" stop-opacity="0"/>
</linearGradient>
</defs>
</svg>
