<svg width="31" height="35" viewBox="0 0 31 35" fill="none" xmlns="http://www.w3.org/2000/svg">
<g id="Layer_1" clip-path="url(#clip0_34_20175)">
<path id="Vector" d="M10.8095 27.4997L8.94032 33.577C8.77559 34.1126 9.03742 34.6867 9.54719 34.909C10.057 35.1313 10.6517 34.9282 10.9239 34.4399L14.0173 28.8948L10.8095 27.498V27.4997Z" fill="#193651"/>
<path id="Vector_2" d="M13.1312 30.4823L12.0319 32.4532L10.2303 29.3814L13.1312 30.4823Z" fill="#0C293A"/>
<path id="Vector_3" d="M26.0541 24.7027L29.9225 29.728C30.2641 30.1708 30.219 30.8009 29.8185 31.1912C29.418 31.5798 28.792 31.6026 28.3672 31.242L23.5382 27.1497L26.0541 24.7027Z" fill="#193651"/>
<path id="Vector_4" d="M24.9185 28.3189L26.635 29.7735L27.2523 26.2588L24.9185 28.3189Z" fill="#0C293A"/>
<path id="Vector_5" d="M16.2592 2.53277L12.3058 3.25741C11.9903 3.31517 11.7822 3.61973 11.8394 3.9383C11.8966 4.25686 12.1983 4.4669 12.5139 4.40914L14.0797 4.12208L14.3397 5.56612L14.0571 5.61863L14.416 7.61053L15.7373 7.36898L15.3784 5.37709L15.0957 5.4296L14.8356 3.98556L16.4655 3.68625C16.7811 3.62849 16.9892 3.32393 16.932 3.00536C16.8747 2.6868 16.573 2.47676 16.2575 2.53452L16.2592 2.53277Z" fill="#193651"/>
<path id="Vector_6" d="M11.08 6.37126C11.3574 6.74584 9.67378 8.49794 7.26015 10.3708C7.1197 10.4793 6.97752 10.5879 6.8336 10.6981C6.68969 10.8067 6.54577 10.9152 6.40186 11.0184C3.93968 12.8266 1.79828 13.9608 1.52085 13.5862C1.24342 13.2116 2.92707 11.4595 5.34243 9.58666C5.48288 9.47814 5.62506 9.36961 5.76897 9.25934C5.91289 9.14907 6.05681 9.0423 6.20072 8.93903C8.6629 7.13092 10.8043 5.99669 11.0817 6.37126H11.08Z" fill="#DB8D11"/>
<path id="Vector_7" d="M3.38132 5.17578L3.3241 5.10227L3.3189 5.09526C3.30329 5.07426 3.2426 5.09001 3.15937 5.13202L2.83166 4.69093C2.89755 4.62267 2.92876 4.57016 2.91316 4.54916L2.77618 4.36362C2.77618 4.36362 2.75537 4.36012 2.74497 4.36187C2.74497 4.35837 2.73976 4.35837 2.7363 4.35487H2.73283C2.66174 4.30936 2.37217 4.2586 2.1745 4.40563C1.97337 4.55791 1.94042 4.86247 1.96643 4.93773C1.96296 4.94298 1.9647 4.94648 1.96817 4.94999C1.96643 4.95874 1.9595 4.97099 1.96123 4.97449V4.97799L2.09821 5.16353C2.11382 5.18453 2.17277 5.16528 2.2612 5.12502L2.58544 5.56436C2.52302 5.63612 2.49008 5.69038 2.50568 5.71139L2.51089 5.71839L2.5629 5.7849C2.5629 5.7849 2.56811 5.7884 2.56811 5.7919C2.59932 5.83391 2.80565 5.72889 3.03106 5.55911C3.25647 5.38932 3.41426 5.21779 3.38305 5.17578H3.38478H3.38132ZM2.2612 4.52465C2.16757 4.59817 2.07914 4.62967 2.05833 4.60517C2.03752 4.57716 2.09128 4.49139 2.18491 4.41963C2.27507 4.35137 2.37564 4.32511 2.39645 4.35312C2.41205 4.37762 2.35657 4.45639 2.2612 4.52465Z" fill="#193651"/>
<path id="Vector_8" d="M6.19379 8.94604L9.12412 12.9036L8.2797 13.5407L5.34937 9.58317C5.48635 9.4764 5.62679 9.36963 5.76898 9.26111C5.91116 9.15434 6.05334 9.04757 6.19379 8.94604Z" fill="#193651"/>
<path id="Vector_9" d="M11.0835 6.37477L8.62304 8.23189L6.72612 9.66017V9.66367L5.8817 10.2973L1.52087 13.588C-0.0223215 11.4613 0.145869 8.53295 1.79137 6.47454C2.00291 6.20498 2.24219 5.94943 2.50748 5.71839C2.63232 5.60461 2.7641 5.49609 2.90281 5.39107C3.04153 5.28605 3.18198 5.18803 3.32416 5.10226C5.90944 3.46043 9.2958 4.00654 11.0835 6.37652V6.37477Z" fill="#F5AA09"/>
<path id="Vector_10" d="M8.62304 8.23364L6.72612 9.66192V9.66542L5.8817 10.2991V10.3026L1.52087 13.588C-0.0223215 11.4613 0.145869 8.53295 1.79137 6.47454C3.96571 5.56961 6.47297 6.01769 8.10633 7.63502C8.29012 7.82055 8.46352 8.0201 8.62477 8.23364H8.62304Z" fill="#F7B90E"/>
<path id="Vector_11" d="M2.98768 7.00314C2.93046 7.01364 2.87151 6.99789 2.82469 6.95763C2.74493 6.88587 2.73626 6.76159 2.80735 6.68108C2.91312 6.55855 3.02583 6.44303 3.14373 6.33451C3.2235 6.26099 3.34487 6.26624 3.41769 6.34676C3.49052 6.42727 3.48532 6.5498 3.40556 6.62331C3.29805 6.72308 3.19402 6.82986 3.09692 6.94013C3.06744 6.97513 3.02756 6.99614 2.98595 7.00314H2.98768Z" fill="#FED115"/>
<path id="Vector_12" d="M2.36183 12.5413C2.2786 12.557 2.19364 12.515 2.15376 12.4363C1.93875 12.0004 1.78096 11.5331 1.68907 11.0482C1.44978 9.79847 1.65092 8.52422 2.25606 7.46001C2.30981 7.36549 2.42772 7.33398 2.52135 7.38824C2.61498 7.4425 2.64619 7.56153 2.59244 7.65604C2.03412 8.63974 1.84859 9.81773 2.0688 10.9747C2.15549 11.4245 2.30114 11.8586 2.50054 12.263C2.54909 12.3592 2.50921 12.4783 2.41385 12.5255C2.39651 12.5343 2.37917 12.5395 2.36183 12.543V12.5413Z" fill="#FED115"/>
<path id="Vector_13" d="M18.4353 5.0235C18.3053 5.47334 20.4918 6.5148 23.4065 7.40922C23.5747 7.46173 23.7463 7.51249 23.9197 7.56325C24.0931 7.61401 24.2648 7.66302 24.4347 7.71028C27.3702 8.5277 29.77 8.83051 29.8983 8.38067C30.0266 7.93083 27.8419 6.88937 24.9271 5.99494C24.759 5.94243 24.5873 5.89167 24.4139 5.84091C24.2405 5.79015 24.0689 5.74114 23.8989 5.69388C20.9634 4.87647 18.5636 4.57366 18.4353 5.0235Z" fill="#DB8D11"/>
<path id="Vector_14" d="M25.2288 1.1675C25.2149 1.21826 25.4213 1.32153 25.6918 1.40029C25.9623 1.47906 26.1929 1.50356 26.2067 1.4528C26.2067 1.4528 26.2102 1.4493 26.2085 1.44405L26.2328 1.36354V1.35478C26.2432 1.33028 26.1929 1.29177 26.1096 1.24626L26.2605 0.721158C26.3559 0.728159 26.4183 0.724659 26.427 0.698404L26.4894 0.476109V0.472608C26.4894 0.472608 26.479 0.458606 26.4738 0.451604C26.4772 0.446353 26.4755 0.442852 26.472 0.439352C26.4703 0.360586 26.3333 0.085781 26.0923 0.015767C25.8548 -0.0524966 25.6016 0.0980335 25.5513 0.166297H25.5479C25.5479 0.166297 25.5409 0.171548 25.5409 0.176799C25.5288 0.17855 25.5149 0.18205 25.5114 0.190802L25.449 0.413096C25.4421 0.437601 25.4889 0.477859 25.5739 0.518117L25.4213 1.04847C25.3294 1.03797 25.267 1.04497 25.26 1.06948V1.07823L25.2305 1.1675H25.2323H25.2288ZM25.8617 0.045523C25.8721 0.0122663 25.9744 0.00176423 26.0819 0.0332705C26.1946 0.0682775 26.2744 0.12954 26.2657 0.162796C26.2553 0.192552 26.1617 0.194303 26.0472 0.159296C25.9345 0.127789 25.8548 0.0752789 25.8617 0.045523Z" fill="#193651"/>
<path id="Vector_15" d="M23.9076 5.69563L22.543 10.4408L23.5556 10.7366L24.9202 5.99144C24.7537 5.94068 24.5855 5.88992 24.4156 5.83916C24.2457 5.7884 24.0758 5.74114 23.9076 5.69388V5.69563Z" fill="#193651"/>
<path id="Vector_16" d="M18.4336 5.02701L21.383 5.89168L23.6579 6.55331V6.55681L24.6706 6.84912L29.8983 8.38068C30.6023 5.84092 29.425 3.16113 27.1657 1.81862C26.8726 1.64183 26.5623 1.4878 26.2311 1.36528C26.0733 1.30226 25.9138 1.248 25.7473 1.19899C25.5809 1.14998 25.4161 1.10797 25.2514 1.07822C22.2587 0.460344 19.2798 2.17394 18.4319 5.02701H18.4336Z" fill="#F5AA09"/>
<path id="Vector_17" d="M21.3846 5.89167L23.6596 6.55331V6.55681L24.6722 6.84911V6.85262L29.9 8.37892C30.6039 5.83916 29.4266 3.15938 27.1673 1.81686C24.8178 1.74159 22.6261 3.05261 21.6621 5.14602C21.5546 5.38407 21.4609 5.63262 21.3864 5.88992L21.3846 5.89167Z" fill="#F7B90E"/>
<path id="Vector_18" d="M26.2311 2.73931C26.2883 2.72881 26.3386 2.6938 26.3681 2.63779C26.4183 2.54152 26.3819 2.42425 26.2883 2.37349C26.1461 2.29647 26.0005 2.22821 25.8513 2.1687C25.7525 2.12844 25.6398 2.17745 25.5982 2.27722C25.5583 2.37699 25.6069 2.49251 25.7057 2.53277C25.8409 2.58878 25.9745 2.65004 26.1045 2.72006C26.1444 2.74106 26.1895 2.74806 26.2311 2.73931Z" fill="#FED115"/>
<path id="Vector_19" d="M28.747 7.70154C28.8302 7.68579 28.8961 7.61752 28.9047 7.52825C28.955 7.04341 28.9377 6.55156 28.8562 6.06321C28.6447 4.80821 28.0118 3.68624 27.0737 2.90558C26.9905 2.83557 26.8691 2.84782 26.7998 2.93184C26.7321 3.01585 26.7425 3.13838 26.8258 3.20839C27.691 3.92953 28.2753 4.96749 28.4713 6.12972C28.5476 6.58307 28.5632 7.03991 28.5163 7.488C28.5059 7.59477 28.5822 7.69279 28.6897 7.70329C28.7088 7.70504 28.7262 7.70329 28.7452 7.70154H28.747Z" fill="#FED115"/>
<path id="Vector_20" d="M14.9657 6.85086C8.26412 8.07961 3.82006 14.5612 5.03728 21.321C5.09623 21.6448 5.16386 21.9599 5.24708 22.2697C6.0603 25.4081 8.01963 27.9846 10.5841 29.6177C10.8962 29.819 11.2187 30.0027 11.5482 30.1743C13.8768 31.3838 16.6026 31.8529 19.3751 31.3435C22.1442 30.8359 24.5318 29.4286 26.2918 27.4735C26.5414 27.1969 26.7807 26.9064 27.0044 26.6053C28.8302 24.1671 29.7666 21.0585 29.4388 17.8326C29.4042 17.5122 29.3591 17.1937 29.3019 16.8699C28.0846 10.11 21.6639 5.62212 14.9675 6.85086H14.9657ZM25.5878 24.9215C25.3762 25.2348 25.1491 25.5323 24.9046 25.8194C23.436 27.547 21.3865 28.795 18.9954 29.2343C16.6008 29.6737 14.2514 29.2326 12.2747 28.1369C11.9452 27.9548 11.6262 27.757 11.3228 27.5383C9.19003 26.0365 7.62777 23.7225 7.12666 20.9377C6.11925 15.3418 9.79864 9.97699 15.3455 8.96004C20.8888 7.94308 26.2033 11.6573 27.2107 17.2532C27.7118 20.038 27.0582 22.7598 25.5878 24.9215Z" fill="#E3080E"/>
<path id="Vector_21" d="M15.4593 9.13032L15.2938 9.16068L15.5112 10.3679L15.6766 10.3375L15.4593 9.13032Z" fill="#193651"/>
<path id="Vector_22" d="M18.826 27.8269L18.6605 27.8572L18.8779 29.0645L19.0433 29.0341L18.826 27.8269Z" fill="#193651"/>
<path id="Vector_23" d="M10.7529 11.3267L10.6246 11.4365L11.4108 12.3723L11.5391 12.2625L10.7529 11.3267Z" fill="#193651"/>
<path id="Vector_24" d="M22.9266 25.8216L22.7983 25.9314L23.5845 26.8672L23.7128 26.7574L22.9266 25.8216Z" fill="#193651"/>
<path id="Vector_25" d="M7.76287 15.6074L7.70618 15.7672L8.85052 16.1809L8.90721 16.021L7.76287 15.6074Z" fill="#193651"/>
<path id="Vector_26" d="M25.4863 22.0138L25.4296 22.1736L26.5739 22.5872L26.6306 22.4274L25.4863 22.0138Z" fill="#193651"/>
<path id="Vector_27" d="M8.49094 20.6035L7.29504 20.8229L7.32512 20.9899L8.52101 20.7705L8.49094 20.6035Z" fill="#193651"/>
<path id="Vector_28" d="M27.0121 17.2049L25.8162 17.4243L25.8462 17.5913L27.0421 17.3719L27.0121 17.2049Z" fill="#193651"/>
<path id="Vector_29" d="M10.3984 24.7799L9.47144 25.5735L9.58022 25.703L10.5072 24.9094L10.3984 24.7799Z" fill="#193651"/>
<path id="Vector_30" d="M24.7573 12.4909L23.8303 13.2845L23.9391 13.414L24.8661 12.6204L24.7573 12.4909Z" fill="#193651"/>
<path id="Vector_31" d="M14.1209 27.4368L13.7112 28.5919L13.8695 28.6492L14.2793 27.494L14.1209 27.4368Z" fill="#193651"/>
<path id="Vector_32" d="M20.4672 9.54544L20.0575 10.7006L20.2158 10.7579L20.6256 9.60268L20.4672 9.54544Z" fill="#193651"/>
<path id="Vector_33" d="M14.397 9.37461L14.3154 9.39868L14.4862 9.98836L14.5678 9.96429L14.397 9.37461Z" fill="#193651"/>
<path id="Vector_34" d="M19.8519 28.2059L19.7704 28.23L19.9412 28.8197L20.0227 28.7956L19.8519 28.2059Z" fill="#193651"/>
<path id="Vector_35" d="M13.4055 9.72069L13.3269 9.75323L13.5578 10.3217L13.6365 10.2891L13.4055 9.72069Z" fill="#193651"/>
<path id="Vector_36" d="M20.7797 27.8711L20.701 27.9037L20.932 28.4721L21.0106 28.4395L20.7797 27.8711Z" fill="#193651"/>
<path id="Vector_37" d="M12.4557 10.17L12.3809 10.2107L12.6693 10.7517L12.7441 10.711L12.4557 10.17Z" fill="#193651"/>
<path id="Vector_38" d="M21.6697 27.4452L21.5948 27.4859L21.8834 28.0268L21.9582 27.9862L21.6697 27.4452Z" fill="#193651"/>
<path id="Vector_39" d="M11.5564 10.7162L11.4862 10.7646L11.8293 11.272L11.8994 11.2237L11.5564 10.7162Z" fill="#193651"/>
<path id="Vector_40" d="M22.5096 26.9223L22.4395 26.9707L22.7825 27.4781L22.8527 27.4298L22.5096 26.9223Z" fill="#193651"/>
<path id="Vector_41" d="M9.95531 12.076L9.89661 12.138L10.3366 12.5625L10.3953 12.5005L9.95531 12.076Z" fill="#193651"/>
<path id="Vector_42" d="M24.0039 25.6295L23.9452 25.6915L24.3852 26.116L24.4439 26.0539L24.0039 25.6295Z" fill="#193651"/>
<path id="Vector_43" d="M9.26546 12.8772L9.2135 12.9451L9.69505 13.3208L9.747 13.2529L9.26546 12.8772Z" fill="#193651"/>
<path id="Vector_44" d="M24.6439 24.8732L24.5919 24.9411L25.0734 25.3169L25.1254 25.249L24.6439 24.8732Z" fill="#193651"/>
<path id="Vector_45" d="M8.66526 13.7472L8.62061 13.8202L9.13836 14.1431L9.18302 14.0702L8.66526 13.7472Z" fill="#193651"/>
<path id="Vector_46" d="M25.2005 24.056L25.1559 24.129L25.6737 24.4518L25.7183 24.3789L25.2005 24.056Z" fill="#193651"/>
<path id="Vector_47" d="M8.15794 14.6698L8.12109 14.7471L8.6695 15.0135L8.70634 14.9362L8.15794 14.6698Z" fill="#193651"/>
<path id="Vector_48" d="M25.67 23.1818L25.6332 23.2591L26.1816 23.5255L26.2184 23.4482L25.67 23.1818Z" fill="#193651"/>
<path id="Vector_49" d="M7.44358 16.6585L7.42346 16.7418L8.01475 16.8873L8.03488 16.804L7.44358 16.6585Z" fill="#193651"/>
<path id="Vector_50" d="M26.3231 21.3038L26.303 21.3871L26.8943 21.5325L26.9144 21.4492L26.3231 21.3038Z" fill="#193651"/>
<path id="Vector_51" d="M7.24501 17.698L7.23364 17.783L7.83678 17.8652L7.84815 17.7802L7.24501 17.698Z" fill="#193651"/>
<path id="Vector_52" d="M26.5047 20.3295L26.4933 20.4145L27.0964 20.4969L27.1078 20.4119L26.5047 20.3295Z" fill="#193651"/>
<path id="Vector_53" d="M7.15354 18.7553L7.151 18.8411L7.75934 18.8594L7.76187 18.7737L7.15354 18.7553Z" fill="#193651"/>
<path id="Vector_54" d="M26.5787 19.3346L26.5762 19.4204L27.1845 19.4385L27.187 19.3528L26.5787 19.3346Z" fill="#193651"/>
<path id="Vector_55" d="M7.78011 19.7671L7.17322 19.8132L7.17959 19.8987L7.78648 19.8526L7.78011 19.7671Z" fill="#193651"/>
<path id="Vector_56" d="M27.1611 18.2956L26.5542 18.3417L26.5606 18.4272L27.1675 18.3812L27.1611 18.2956Z" fill="#193651"/>
<path id="Vector_57" d="M8.12272 21.7234L7.53857 21.8958L7.56242 21.9782L8.14657 21.8057L8.12272 21.7234Z" fill="#193651"/>
<path id="Vector_58" d="M26.7757 16.2156L26.1915 16.3881L26.2154 16.4704L26.7995 16.2979L26.7757 16.2156Z" fill="#193651"/>
<path id="Vector_59" d="M8.44371 22.6633L7.88062 22.8964L7.91285 22.9758L8.47594 22.7426L8.44371 22.6633Z" fill="#193651"/>
<path id="Vector_60" d="M26.4245 15.2193L25.8615 15.4525L25.8937 15.5319L26.4568 15.2986L26.4245 15.2193Z" fill="#193651"/>
<path id="Vector_61" d="M8.86082 23.5655L8.32495 23.8567L8.36523 23.9322L8.9011 23.641L8.86082 23.5655Z" fill="#193651"/>
<path id="Vector_62" d="M25.9732 14.2612L25.4374 14.5525L25.4777 14.628L26.0135 14.3367L25.9732 14.2612Z" fill="#193651"/>
<path id="Vector_63" d="M9.37002 24.4141L8.86731 24.7604L8.9152 24.8313L9.41791 24.485L9.37002 24.4141Z" fill="#193651"/>
<path id="Vector_64" d="M25.4241 13.3589L24.9214 13.7052L24.9693 13.776L25.472 13.4297L25.4241 13.3589Z" fill="#193651"/>
<path id="Vector_65" d="M10.6365 25.9351L10.2161 26.3792L10.2775 26.4385L10.698 25.9943L10.6365 25.9351Z" fill="#193651"/>
<path id="Vector_66" d="M24.0614 11.7526L23.641 12.1968L23.7024 12.2561L24.1228 11.8118L24.0614 11.7526Z" fill="#193651"/>
<path id="Vector_67" d="M11.3794 26.5869L11.0073 27.0731L11.0746 27.1255L11.4467 26.6393L11.3794 26.5869Z" fill="#193651"/>
<path id="Vector_68" d="M23.2642 11.0666L22.892 11.5526L22.9592 11.6051L23.3314 11.119L23.2642 11.0666Z" fill="#193651"/>
<path id="Vector_69" d="M12.1864 27.1598L11.8666 27.6826L11.9389 27.7276L12.2587 27.2049L12.1864 27.1598Z" fill="#193651"/>
<path id="Vector_70" d="M22.3978 10.4662L22.078 10.9889L22.1503 11.034L22.4701 10.5113L22.3978 10.4662Z" fill="#193651"/>
<path id="Vector_71" d="M13.0482 27.6404L12.7843 28.194L12.8609 28.2312L13.1248 27.6776L13.0482 27.6404Z" fill="#193651"/>
<path id="Vector_72" d="M21.4787 9.96419L21.2147 10.5178L21.2913 10.555L21.5552 10.0014L21.4787 9.96419Z" fill="#193651"/>
<path id="Vector_73" d="M14.8988 28.3196L14.7545 28.9165L14.8371 28.9368L14.9813 28.34L14.8988 28.3196Z" fill="#193651"/>
<path id="Vector_74" d="M19.501 9.25675L19.3569 9.85367L19.4395 9.87397L19.5835 9.27705L19.501 9.25675Z" fill="#193651"/>
<path id="Vector_75" d="M15.8666 28.5089L15.7849 29.1177L15.8691 29.1292L15.9508 28.5204L15.8666 28.5089Z" fill="#193651"/>
<path id="Vector_76" d="M18.4699 9.0662L18.3884 9.67505L18.4726 9.68653L18.5541 9.07768L18.4699 9.0662Z" fill="#193651"/>
<path id="Vector_77" d="M16.848 28.596L16.8298 29.2101L16.9148 29.2127L16.9329 28.5986L16.848 28.596Z" fill="#193651"/>
<path id="Vector_78" d="M17.4229 8.98315L17.4049 9.59726L17.4898 9.59979L17.5078 8.98568L17.4229 8.98315Z" fill="#193651"/>
<path id="Vector_79" d="M17.9196 28.569L17.8348 28.5754L17.8805 29.1881L17.9652 29.1817L17.9196 28.569Z" fill="#193651"/>
<path id="Vector_80" d="M16.4602 9.00626L16.3755 9.0127L16.4211 9.62534L16.5058 9.61891L16.4602 9.00626Z" fill="#193651"/>
<path id="Vector_81" d="M19.6334 11.337H19.6282L19.3803 11.5261L19.2936 11.3195L19.623 11.0727L19.8588 11.029L20.1293 12.5308L19.8571 12.5815L19.6334 11.3353V11.337Z" fill="#193651"/>
<path id="Vector_82" d="M22.7667 14.9532L22.7355 14.7799L22.8829 14.5839C23.1742 14.1918 23.3059 13.9818 23.273 13.7822C23.2487 13.6475 23.1568 13.5442 22.9626 13.5792C22.8326 13.6037 22.732 13.6912 22.6661 13.763L22.5482 13.5775C22.6401 13.4707 22.791 13.3727 22.9782 13.3394C23.3077 13.2781 23.5053 13.4602 23.5504 13.7052C23.5972 13.9678 23.4481 14.2163 23.2331 14.5051L23.1239 14.6417V14.6469L23.736 14.5349L23.7776 14.7712L22.7684 14.9567L22.7667 14.9532Z" fill="#193651"/>
<path id="Vector_83" d="M24.5335 18.1774C24.5976 18.2019 24.7468 18.2334 24.8889 18.2071C25.1039 18.1669 25.1698 18.0286 25.1456 17.9113C25.1144 17.7328 24.9358 17.6873 24.7641 17.7188L24.6341 17.7433L24.5959 17.535L24.7225 17.5123C24.8525 17.4877 25.0069 17.3985 24.9791 17.2479C24.96 17.1464 24.8699 17.0747 24.7069 17.1044C24.5855 17.1272 24.4745 17.2024 24.419 17.255L24.3185 17.0607C24.393 16.9854 24.5474 16.8996 24.726 16.8664C25.0329 16.8104 25.2219 16.9521 25.2565 17.1482C25.2843 17.3057 25.2167 17.451 25.045 17.549V17.5543C25.2323 17.5543 25.4039 17.6645 25.4403 17.8693C25.4854 18.1231 25.312 18.3629 24.9427 18.4312C24.7624 18.4644 24.5976 18.4417 24.5075 18.4032L24.5335 18.1774Z" fill="#193651"/>
<path id="Vector_84" d="M24.5144 22.3957L24.4451 22.0141L23.7723 22.1384L23.7394 21.9529L24.1781 20.9062L24.5092 20.8449L24.6722 21.7498L24.8647 21.7148L24.9028 21.9301L24.7104 21.9651L24.7797 22.3467L24.5144 22.3957ZM24.4069 21.7989L24.3341 21.3893C24.3185 21.3035 24.3046 21.216 24.296 21.1267H24.2873C24.2578 21.2317 24.2336 21.3158 24.2023 21.4068L24.0047 21.8689V21.8741L24.4087 21.8006L24.4069 21.7989Z" fill="#193651"/>
<path id="Vector_85" d="M22.4025 24.2949L21.8303 24.3999L21.8407 24.7079C21.8737 24.6974 21.9031 24.6887 21.9465 24.6817C22.0765 24.6572 22.2135 24.6642 22.3262 24.7132C22.4511 24.764 22.5568 24.876 22.5898 25.058C22.6418 25.3451 22.4476 25.6216 22.0817 25.6881C21.9101 25.7196 21.7575 25.7021 21.6725 25.6724L21.6916 25.4466C21.7627 25.4693 21.8979 25.4904 22.0332 25.4658C22.1979 25.4361 22.3384 25.3118 22.3072 25.1315C22.2759 24.96 22.1303 24.8707 21.8321 24.925C21.7488 24.9407 21.6881 24.9565 21.6309 24.9757L21.5928 24.2003L22.3626 24.0586L22.4043 24.2949H22.4025Z" fill="#193651"/>
<path id="Vector_86" d="M18.8063 25.9805C18.7647 25.9875 18.7197 25.9962 18.6642 26.0137C18.359 26.1082 18.2428 26.3288 18.2446 26.5441H18.2515C18.3087 26.4443 18.411 26.3638 18.5601 26.3358C18.8168 26.2885 19.0491 26.4373 19.1046 26.7419C19.1566 27.0289 18.9936 27.316 18.6763 27.3737C18.3139 27.4402 18.066 27.1987 17.9983 26.8294C17.9463 26.5406 18.007 26.2868 18.1353 26.1065C18.2498 25.9524 18.4145 25.8457 18.6243 25.7879C18.685 25.7704 18.7301 25.7617 18.7647 25.7564L18.8063 25.977V25.9805ZM18.8185 26.8119C18.7873 26.6386 18.6711 26.5318 18.5064 26.5616C18.4006 26.5808 18.3191 26.6631 18.2914 26.7611C18.2844 26.7856 18.2827 26.8154 18.2896 26.8539C18.3295 27.0517 18.4526 27.1969 18.633 27.1637C18.7786 27.1374 18.8497 26.9922 18.8185 26.8119Z" fill="#193651"/>
<path id="Vector_87" d="M14.9917 25.4238L15.0246 25.6059L14.6327 27.0412L14.3345 27.0954L14.735 25.7196V25.7144L14.0345 25.8422L13.9929 25.6059L14.9934 25.4221L14.9917 25.4238Z" fill="#193651"/>
<path id="Vector_88" d="M10.9464 24.4856C10.9135 24.2984 10.9967 24.1513 11.1562 24.0446V24.0376C10.9863 23.9903 10.8927 23.8783 10.8684 23.747C10.825 23.5019 11.0088 23.2954 11.2915 23.2446C11.6122 23.1851 11.7926 23.3532 11.8272 23.5387C11.8498 23.6665 11.8082 23.81 11.6591 23.9203V23.9273C11.8342 23.9605 11.9781 24.0673 12.0128 24.2546C12.0613 24.5224 11.8689 24.7447 11.5515 24.8025C11.203 24.8655 10.9863 24.6992 10.9481 24.4874L10.9464 24.4856ZM11.7284 24.3281C11.7007 24.1758 11.5741 24.1128 11.4007 24.0971C11.2689 24.1636 11.2065 24.2756 11.229 24.4016C11.2481 24.5294 11.3643 24.6274 11.5221 24.5977C11.6712 24.5697 11.7527 24.4576 11.7284 24.3281ZM11.1319 23.6857C11.1545 23.8083 11.2672 23.8643 11.4163 23.8765C11.5117 23.8275 11.581 23.7295 11.5602 23.6157C11.5411 23.5124 11.4596 23.4144 11.3088 23.4424C11.1666 23.4687 11.1111 23.5772 11.1302 23.6857H11.1319Z" fill="#193651"/>
<path id="Vector_89" d="M9.28539 21.111C9.33048 21.1075 9.37209 21.097 9.43971 21.0777C9.54722 21.048 9.65125 20.9884 9.72061 20.9062C9.8021 20.8099 9.84892 20.6839 9.85065 20.5386H9.84545C9.78476 20.6366 9.6894 20.7049 9.54375 20.7311C9.28539 20.7784 9.05825 20.6244 9.00796 20.3478C8.95595 20.0608 9.13107 19.7719 9.45012 19.7124C9.79517 19.6494 10.031 19.8892 10.0969 20.255C10.1541 20.5754 10.0899 20.8239 9.96336 21.0007C9.85412 21.1477 9.6894 21.2492 9.49173 21.3C9.42931 21.3193 9.36515 21.3298 9.32354 21.335L9.28366 21.111H9.28539ZM9.28539 20.2795C9.31487 20.4336 9.42411 20.5386 9.58016 20.5088C9.6946 20.4878 9.76742 20.4196 9.79864 20.3408C9.80384 20.3198 9.8073 20.2971 9.79864 20.2568C9.76396 20.0538 9.65645 19.891 9.47439 19.9242C9.33221 19.9505 9.25245 20.0958 9.28539 20.2795Z" fill="#193651"/>
<path id="Vector_90" d="M9.46741 16.3465H9.46221L9.21426 16.5356L9.12756 16.329L9.45701 16.0822L9.69282 16.0385L9.96332 17.5403L9.69109 17.591L9.46741 16.3448V16.3465Z" fill="#193651"/>
<path id="Vector_91" d="M11.3903 16.4953C11.477 16.9784 11.3435 17.3145 10.9898 17.381C10.6464 17.444 10.4072 17.1639 10.3222 16.7071C10.239 16.2397 10.3777 15.8897 10.7262 15.8267C11.0851 15.7602 11.3105 16.0542 11.3903 16.4971V16.4953ZM10.6048 16.6528C10.669 17.0187 10.8025 17.1884 10.9585 17.1604C11.1233 17.1307 11.1736 16.9101 11.1094 16.5513C11.047 16.203 10.9273 16.0122 10.7574 16.0437C10.6066 16.0717 10.5355 16.2783 10.6048 16.6546V16.6528Z" fill="#193651"/>
<path id="Vector_92" d="M11.4441 12.9754H11.4389L11.1909 13.1644L11.1042 12.9579L11.4337 12.7111L11.6695 12.6673L11.94 14.1691L11.6678 14.2199L11.4441 12.9736V12.9754Z" fill="#193651"/>
<path id="Vector_93" d="M12.6699 12.7513H12.6647L12.4168 12.9403L12.3301 12.7338L12.6595 12.487L12.8953 12.4432L13.1658 13.945L12.8936 13.9958L12.6699 12.7495V12.7513Z" fill="#193651"/>
<path id="Vector_94" d="M14.99 11.2128H14.9848L14.7368 11.4018L14.6501 11.1953L14.9796 10.9485L15.2154 10.9047L15.4859 12.4065L15.2137 12.4573L14.99 11.211V11.2128Z" fill="#193651"/>
<path id="Vector_95" d="M15.9991 12.3137L15.9679 12.1404L16.1153 11.9444C16.4066 11.5523 16.5384 11.3423 16.5054 11.1427C16.4811 11.0079 16.3892 10.9047 16.195 10.9397C16.065 10.9642 15.9644 11.0517 15.8985 11.1235L15.7806 10.9379C15.8725 10.8312 16.0234 10.7331 16.2107 10.6999C16.5401 10.6386 16.7378 10.8207 16.7828 11.0657C16.8297 11.3283 16.6805 11.5768 16.4655 11.8656L16.3563 12.0021V12.0074L16.9684 11.8954L17.01 12.1317L16.0008 12.3172L15.9991 12.3137Z" fill="#193651"/>
<path id="Vector_96" d="M19.1115 16.9066L18.8861 16.7228L17.3083 18.7042L17.388 18.769L11.6036 26.0277L11.6695 26.082L17.4539 18.8233L17.5337 18.888L19.1115 16.9066Z" fill="#D60707"/>
<path id="Vector_97" d="M13.0427 11.0517C13.0358 11.0395 13.0202 11.036 13.008 11.043C12.9959 11.05 12.9907 11.064 12.9959 11.078L14.2738 14.1131L17.2388 19.3256L17.3151 19.2854L17.3914 19.2451L14.8044 13.8313L13.0445 11.0535L13.0427 11.0517Z" fill="#193651"/>
<path id="Vector_98" d="M22.0921 18.2159C22.1025 18.2124 22.1094 18.2019 22.1077 18.1914C22.106 18.1809 22.0956 18.1721 22.0852 18.1739L20.2992 18.2824L17.1244 19.0368L17.1365 19.1033L17.1487 19.1698L20.3824 18.748L22.0921 18.2159Z" fill="#193651"/>
<path id="Vector_99" d="M17.0776 18.594C16.802 18.6447 16.6182 18.9108 16.6684 19.1891C16.7187 19.4674 16.9823 19.6529 17.258 19.6022C17.5337 19.5514 17.7175 19.2854 17.6672 19.007C17.6169 18.7287 17.3533 18.5432 17.0776 18.594Z" fill="#193651"/>
</g>
<defs>
<clipPath id="clip0_34_20175">
<rect width="29.697" height="35" fill="white" transform="translate(0.454468)"/>
</clipPath>
</defs>
</svg>
